<svg width="30" height="30" viewBox="0 0 30 30" fill="none" xmlns="http://www.w3.org/2000/svg">
<path fill-rule="evenodd" clip-rule="evenodd" d="M15 0C6.71573 0 0 6.71573 0 15C0 23.2843 6.71573 30 15 30C23.2843 30 30 23.2843 30 15C30 6.71573 23.2843 0 15 0ZM11.702 7.04931C12.5554 7.01048 12.8281 7.00098 15.0007 7.00098H14.9982C17.1716 7.00098 17.4433 7.01048 18.2966 7.04931C19.1483 7.08831 19.73 7.22315 20.24 7.42098C20.7666 7.62515 21.2116 7.89849 21.6567 8.34349C22.1017 8.78816 22.375 9.2345 22.58 9.76067C22.7767 10.2693 22.9117 10.8507 22.9517 11.7024C22.99 12.5557 23 12.8284 23 15.0011C23 17.1737 22.99 17.4458 22.9517 18.2991C22.9117 19.1504 22.7767 19.7319 22.58 20.2408C22.375 20.7668 22.1017 21.2131 21.6567 21.6578C21.2121 22.1028 20.7665 22.3768 20.2405 22.5811C19.7315 22.779 19.1495 22.9138 18.2978 22.9528C17.4444 22.9916 17.1726 23.0011 14.9997 23.0011C12.8272 23.0011 12.5547 22.9916 11.7014 22.9528C10.8499 22.9138 10.2684 22.779 9.75936 22.5811C9.23352 22.3768 8.78718 22.1028 8.34268 21.6578C7.89784 21.2131 7.62451 20.7668 7.42 20.2406C7.22234 19.7319 7.0875 19.1506 7.04833 18.2989C7.00967 17.4456 7 17.1737 7 15.0011C7 12.8284 7.01 12.5555 7.04817 11.7022C7.0865 10.8509 7.2215 10.2693 7.41984 9.76051C7.62484 9.2345 7.89818 8.78816 8.34318 8.34349C8.78785 7.89865 9.23419 7.62532 9.76036 7.42098C10.269 7.22315 10.8504 7.08831 11.702 7.04931ZM14.2831 8.44145C14.4225 8.44124 14.5724 8.4413 14.7341 8.44137L15.0008 8.44145C17.1368 8.44145 17.39 8.44912 18.2335 8.48745C19.0135 8.52312 19.4368 8.65346 19.7188 8.76296C20.0922 8.90796 20.3583 9.08129 20.6382 9.3613C20.9182 9.6413 21.0915 9.90797 21.2368 10.2813C21.3463 10.563 21.4769 10.9863 21.5124 11.7663C21.5507 12.6097 21.559 12.863 21.559 14.998C21.559 17.133 21.5507 17.3864 21.5124 18.2297C21.4767 19.0097 21.3463 19.4331 21.2368 19.7147C21.0918 20.0881 20.9182 20.3539 20.6382 20.6337C20.3582 20.9137 20.0923 21.0871 19.7188 21.2321C19.4372 21.3421 19.0135 21.4721 18.2335 21.5078C17.3901 21.5461 17.1368 21.5544 15.0008 21.5544C12.8646 21.5544 12.6114 21.5461 11.7681 21.5078C10.9881 21.4718 10.5647 21.3414 10.2826 21.2319C9.90923 21.0869 9.64256 20.9136 9.36256 20.6336C9.08256 20.3536 8.90922 20.0876 8.76389 19.7141C8.65438 19.4324 8.52388 19.0091 8.48838 18.2291C8.45005 17.3857 8.44238 17.1324 8.44238 14.996C8.44238 12.8597 8.45005 12.6077 8.48838 11.7643C8.52405 10.9843 8.65438 10.561 8.76389 10.279C8.90889 9.90563 9.08256 9.63897 9.36256 9.35896C9.64256 9.07896 9.90923 8.90562 10.2826 8.76029C10.5646 8.65029 10.9881 8.52029 11.7681 8.48445C12.5061 8.45112 12.7921 8.44112 14.2831 8.43945V8.44145ZM18.311 10.7305C18.311 10.2003 18.741 9.77084 19.271 9.77084V9.77051C19.8011 9.77051 20.2311 10.2005 20.2311 10.7305C20.2311 11.2605 19.8011 11.6905 19.271 11.6905C18.741 11.6905 18.311 11.2605 18.311 10.7305ZM15.0008 10.8926C12.732 10.8927 10.8926 12.7322 10.8926 15.001C10.8926 17.2698 12.7321 19.1085 15.001 19.1085C17.2698 19.1085 19.1087 17.2698 19.1087 15.001C19.1087 12.7321 17.2696 10.8926 15.0008 10.8926ZM17.6674 14.9997C17.6674 13.5269 16.4734 12.333 15.0007 12.333C13.5278 12.333 12.334 13.5269 12.334 14.9997C12.334 16.4724 13.5278 17.6664 15.0007 17.6664C16.4734 17.6664 17.6674 16.4724 17.6674 14.9997Z" fill="white"/>
</svg>
