<svg width="30" height="30" viewBox="0 0 30 30" fill="none" xmlns="http://www.w3.org/2000/svg">
<path d="M16.6667 13.9314L14.604 13.4736C13.8194 13.2948 12.9162 13.0586 12.9162 12.3189C12.9162 11.5775 13.5498 11.0596 14.6935 11.0596C16.9986 11.0596 16.788 12.6437 17.9324 12.6437C18.5346 12.6437 19.0617 12.2896 19.0617 11.6808C19.0617 10.2601 16.788 9.19397 14.8592 9.19397C12.7654 9.19397 10.5356 10.0832 10.5356 12.4514C10.5356 13.5919 10.943 14.8052 13.1874 15.3681L15.9743 16.0639C16.8177 16.2717 17.0288 16.7462 17.0288 17.1742C17.0288 17.886 16.3217 18.5813 15.0409 18.5813C12.539 18.5813 12.8862 16.656 11.5454 16.656C10.943 16.656 10.5059 17.0709 10.5059 17.6631C10.5059 18.8175 11.9075 20.3581 15.0409 20.3581C18.0221 20.3581 19.4993 18.9212 19.4993 16.9968C19.4993 15.7542 18.9264 14.4349 16.6667 13.9314V13.9314Z" fill="white"/>
<path d="M15 0C6.717 0 0 6.717 0 15C0 23.283 6.717 30 15 30C23.283 30 30 23.283 30 15C30 6.717 23.283 0 15 0ZM22.8097 22.7875C21.8234 23.7742 20.5128 24.3164 19.1185 24.3164C18.2153 24.3164 17.3309 24.0816 16.5498 23.6396C16.0428 23.7296 15.5235 23.7769 15.0053 23.7769C13.8146 23.7769 12.6592 23.5435 11.5723 23.0827C10.5212 22.6396 9.57848 22.0031 8.76801 21.1931C7.95845 20.3833 7.32262 19.4405 6.87881 18.39C6.4183 17.3023 6.1853 16.1476 6.1853 14.9567C6.1853 14.4468 6.23108 13.9362 6.31805 13.4365C5.88936 12.6654 5.66116 11.7929 5.66116 10.9051C5.66116 9.5105 6.20453 8.19923 7.19032 7.21321C8.17657 6.22673 9.48784 5.68359 10.8824 5.68359C11.7366 5.68359 12.5807 5.89668 13.331 6.29562C13.3324 6.29539 13.334 6.29539 13.3351 6.29494C13.8821 6.19011 14.444 6.13724 15.0053 6.13724C16.1957 6.13724 17.3508 6.37047 18.4378 6.83029C19.4877 7.27455 20.4316 7.91039 21.2409 8.72017C22.0514 9.53018 22.687 10.4734 23.1313 11.5237C23.5918 12.6112 23.8248 13.7661 23.8248 14.9567C23.8248 15.4935 23.7742 16.0307 23.6778 16.5555C24.1095 17.3296 24.3391 18.205 24.3391 19.0958C24.3388 20.4904 23.7962 21.8019 22.8097 22.7875V22.7875Z" fill="white"/>
</svg>
