<svg width="30" height="30" viewBox="0 0 30 30" fill="none" xmlns="http://www.w3.org/2000/svg">
<path fill-rule="evenodd" clip-rule="evenodd" d="M30 15C30 23.2843 23.2843 30 15 30C6.71573 30 0 23.2843 0 15C0 6.71573 6.71573 0 15 0C23.2843 0 30 6.71573 30 15ZM10.0446 13.6258C8.54196 14.2819 6.99804 14.956 5.58627 15.7336L5.58617 15.7337C4.84899 16.2734 5.82885 16.6552 6.74802 17.0133C6.89415 17.0702 7.03875 17.1266 7.17467 17.1828C7.28777 17.2176 7.4028 17.2542 7.51935 17.2914C8.54164 17.6171 9.68157 17.9802 10.674 17.4339C12.3044 16.4974 13.843 15.4146 15.3804 14.3326C15.8841 13.9782 16.3877 13.6238 16.8943 13.2747C16.918 13.2595 16.9448 13.2421 16.9741 13.2231C17.4057 12.9434 18.3763 12.3142 18.0173 13.1812C17.1683 14.1097 16.2589 14.9316 15.3445 15.758C14.7283 16.3149 14.1098 16.8739 13.5061 17.4689C12.9802 17.8962 12.4342 18.7554 13.023 19.3537C14.3792 20.3031 15.7566 21.2295 17.1332 22.1553C17.5811 22.4566 18.029 22.7578 18.476 23.0598C19.2336 23.6647 20.4177 23.1754 20.5843 22.2302C20.6583 21.7953 20.7327 21.3604 20.8071 20.9256C21.2181 18.5227 21.6292 16.119 21.9924 13.7083C22.0417 13.3302 22.0977 12.952 22.1537 12.5737C22.2894 11.6567 22.4252 10.7387 22.4676 9.81679C22.3583 8.89682 21.2428 9.0991 20.622 9.30596C17.4313 10.5201 14.2724 11.8242 11.126 13.1513C10.7696 13.3092 10.4083 13.467 10.0446 13.6258Z" fill="white"/>
</svg>
