<svg width="30" height="30" fill="none" xmlns="http://www.w3.org/2000/svg"><path fill-rule="evenodd" clip-rule="evenodd" d="M15 0C6.716 0 0 6.716 0 15c0 8.284 6.716 15 15 15 8.284 0 15-6.716 15-15 0-8.284-6.716-15-15-15zm-3.298 7.05c.853-.04 1.126-.05 3.299-.05h-.003c2.174 0 2.445.01 3.299.048.851.04 1.433.174 1.943.372.527.204.972.477 1.417.922.445.445.718.892.923 1.418.197.508.332 1.09.372 1.941.038.854.048 1.126.048 3.3 0 2.172-.01 2.444-.048 3.297-.04.851-.175 1.433-.372 1.942a3.927 3.927 0 01-.923 1.417c-.445.445-.89.719-1.416.923-.51.198-1.091.333-1.943.372-.854.039-1.125.048-3.298.048s-2.445-.01-3.299-.048c-.851-.04-1.433-.174-1.942-.372a3.917 3.917 0 01-1.416-.923 3.92 3.92 0 01-.923-1.417c-.198-.51-.332-1.09-.372-1.942C7.01 17.446 7 17.174 7 15s.01-2.445.048-3.299c.038-.851.173-1.433.372-1.941.205-.526.478-.973.923-1.418A3.917 3.917 0 019.76 7.42c.509-.198 1.09-.333 1.942-.372zm2.581 1.391h.718c2.136 0 2.389.008 3.232.046.78.036 1.204.166 1.486.276.373.145.64.318.92.598.28.28.453.547.598.92.11.282.24.705.275 1.485.039.844.047 1.097.047 3.232 0 2.135-.008 2.388-.047 3.232-.035.78-.166 1.203-.275 1.485a2.478 2.478 0 01-.599.919c-.28.28-.546.453-.92.598-.28.11-.704.24-1.485.276-.843.038-1.096.046-3.232.046s-2.39-.008-3.233-.046c-.78-.036-1.203-.167-1.485-.276a2.478 2.478 0 01-.92-.598 2.48 2.48 0 01-.6-.92c-.109-.282-.24-.705-.275-1.485-.038-.843-.046-1.097-.046-3.233s.008-2.388.046-3.232c.036-.78.166-1.203.276-1.485.145-.373.319-.64.599-.92.28-.28.546-.453.92-.599.282-.11.705-.24 1.485-.276.738-.033 1.024-.043 2.515-.045v.002zm4.028 2.29a.96.96 0 111.92 0 .96.96 0 01-1.92 0zm-3.31.162a4.109 4.109 0 100 8.217 4.109 4.109 0 000-8.217zM17.667 15a2.667 2.667 0 10-5.333 0 2.667 2.667 0 005.333 0z" fill="#fff"/></svg>