<svg width="30" height="30" fill="none" xmlns="http://www.w3.org/2000/svg"><path d="M16.667 13.931l-2.063-.457c-.785-.18-1.688-.415-1.688-1.155 0-.742.634-1.26 1.777-1.26 2.306 0 2.095 1.585 3.24 1.585.602 0 1.129-.354 1.129-.963 0-1.42-2.274-2.487-4.203-2.487-2.094 0-4.323.89-4.323 3.257 0 1.14.407 2.354 2.651 2.917l2.787.696c.844.208 1.055.682 1.055 1.11 0 .712-.707 1.407-1.988 1.407-2.502 0-2.155-1.925-3.496-1.925-.602 0-1.04.415-1.04 1.007 0 1.154 1.402 2.695 4.536 2.695 2.981 0 4.458-1.437 4.458-3.361 0-1.243-.573-2.562-2.832-3.066z" fill="#fff"/><path d="M15 0C6.717 0 0 6.717 0 15c0 8.283 6.717 15 15 15 8.283 0 15-6.717 15-15 0-8.283-6.717-15-15-15zm7.81 22.788a5.184 5.184 0 01-3.691 1.528 5.216 5.216 0 01-2.57-.676 8.86 8.86 0 01-1.544.137 8.748 8.748 0 01-3.433-.694 8.77 8.77 0 01-2.804-1.89 8.782 8.782 0 01-2.583-6.236c0-.51.046-1.02.133-1.52a5.215 5.215 0 01.872-6.224 5.187 5.187 0 013.692-1.53c.855 0 1.699.214 2.449.613l.004-.001a8.894 8.894 0 011.67-.158 8.788 8.788 0 016.236 2.583 8.784 8.784 0 012.584 6.237c0 .536-.05 1.074-.147 1.598a5.22 5.22 0 01-.868 6.233z" fill="#fff"/></svg>