<svg width="30" height="30" fill="none" xmlns="http://www.w3.org/2000/svg"><path fill-rule="evenodd" clip-rule="evenodd" d="M30 15c0 8.284-6.716 15-15 15-8.284 0-15-6.716-15-15C0 6.716 6.716 0 15 0c8.284 0 15 6.716 15 15zm-19.955-1.374c-1.503.656-3.047 1.33-4.459 2.108-.737.54.243.921 1.162 1.28.146.056.29.113.427.169l.344.108c1.023.326 2.163.69 3.155.143 1.63-.937 3.169-2.02 4.706-3.101.504-.355 1.008-.71 1.514-1.058l.08-.052c.432-.28 1.402-.909 1.043-.042-.849.929-1.758 1.75-2.672 2.577a57.75 57.75 0 00-1.839 1.71c-.526.428-1.072 1.287-.483 1.886 1.356.95 2.734 1.876 4.11 2.801l1.343.905c.758.605 1.942.115 2.108-.83l.223-1.304c.411-2.403.822-4.807 1.185-7.218.05-.378.106-.756.162-1.134.135-.917.271-1.835.314-2.757-.11-.92-1.225-.718-1.846-.511-3.19 1.214-6.35 2.518-9.496 3.845-.356.158-.718.316-1.081.475z" fill="#fff"/></svg>