<svg width="623" height="490" fill="none" xmlns="http://www.w3.org/2000/svg"><path d="M218.92 46.734l-28.999-29.011-28.999 29.011 28.999 29.011 28.999-29.01z" stroke="#fff" stroke-width="2"/><g filter="url(#filter0_f)"><path d="M111.033 16.926L99.865 5.753 88.696 16.926 99.865 28.1l11.168-11.173z" stroke="#fff" stroke-width="2"/></g><g filter="url(#filter1_f)"><path d="M445.239 175.096h-25.031v25.041h25.031v-25.041z" stroke="#fff" stroke-width="2"/></g><g filter="url(#filter2_f)"><path d="M262.604 338.331h-25.031v25.041h25.031v-25.041z" stroke="#fff" stroke-width="2"/></g><g filter="url(#filter3_f)"><path d="M578.74 128.722h-68.604v68.633h68.604v-68.633z" stroke="#fff" stroke-width="2"/></g><path d="M378.035 194.598l-111.871 76.306 76.271 111.92 111.881-76.307-76.281-111.919z" fill="#FFDC4E" stroke="#fff" stroke-width="2"/><path d="M368.672 231.968l-67.825 46.261 46.243 67.852 67.825-46.261-46.243-67.852z" fill="#FFDC4E" stroke="#fff" stroke-width="2"/><g filter="url(#filter4_f)"><path d="M36.677 245.184l-24.892-2.64-2.639 24.903 24.892 2.64 2.64-24.903z" stroke="#fff" stroke-width="2"/></g><g filter="url(#filter5_f)"><path d="M193.529 227.376L146.026 195l-32.363 47.523 47.503 32.375 32.363-47.522z" stroke="#fff" stroke-width="2"/></g><g filter="url(#filter6_f)"><path d="M100.434 465.226L79.217 444 58 465.226l21.217 21.226 21.217-21.226z" stroke="#fff" stroke-width="2"/></g><g filter="url(#filter7_f)"><path d="M616.732 400.382L579.366 363 542 400.382l37.366 37.381 37.366-37.381z" fill="#FFDC4E"/><path d="M615.421 400.382l-36.055-36.07-36.055 36.07 36.055 36.07 36.055-36.07z" stroke="#fff" stroke-width="2"/></g><defs><filter id="filter0_f" x="83.282" y=".338" width="33.165" height="33.175" filterUnits="userSpaceOnUse" color-interpolation-filters="sRGB"><feFlood flood-opacity="0" result="BackgroundImageFix"/><feBlend in="SourceGraphic" in2="BackgroundImageFix" result="shape"/><feGaussianBlur stdDeviation="2" result="effect1_foregroundBlur"/></filter><filter id="filter1_f" x="417.208" y="172.096" width="31.031" height="31.042" filterUnits="userSpaceOnUse" color-interpolation-filters="sRGB"><feFlood flood-opacity="0" result="BackgroundImageFix"/><feBlend in="SourceGraphic" in2="BackgroundImageFix" result="shape"/><feGaussianBlur stdDeviation="1" result="effect1_foregroundBlur"/></filter><filter id="filter2_f" x="230.573" y="331.331" width="39.031" height="39.042" filterUnits="userSpaceOnUse" color-interpolation-filters="sRGB"><feFlood flood-opacity="0" result="BackgroundImageFix"/><feBlend in="SourceGraphic" in2="BackgroundImageFix" result="shape"/><feGaussianBlur stdDeviation="3" result="effect1_foregroundBlur"/></filter><filter id="filter3_f" x="503.136" y="121.722" width="82.604" height="82.633" filterUnits="userSpaceOnUse" color-interpolation-filters="sRGB"><feFlood flood-opacity="0" result="BackgroundImageFix"/><feBlend in="SourceGraphic" in2="BackgroundImageFix" result="shape"/><feGaussianBlur stdDeviation="3" result="effect1_foregroundBlur"/></filter><filter id="filter4_f" x=".047" y="233.444" width="45.73" height="45.742" filterUnits="userSpaceOnUse" color-interpolation-filters="sRGB"><feFlood flood-opacity="0" result="BackgroundImageFix"/><feBlend in="SourceGraphic" in2="BackgroundImageFix" result="shape"/><feGaussianBlur stdDeviation="4" result="effect1_foregroundBlur"/></filter><filter id="filter5_f" x="107.273" y="188.61" width="92.644" height="92.678" filterUnits="userSpaceOnUse" color-interpolation-filters="sRGB"><feFlood flood-opacity="0" result="BackgroundImageFix"/><feBlend in="SourceGraphic" in2="BackgroundImageFix" result="shape"/><feGaussianBlur stdDeviation="2.5" result="effect1_foregroundBlur"/></filter><filter id="filter6_f" x="54.586" y="440.585" width="49.262" height="49.281" filterUnits="userSpaceOnUse" color-interpolation-filters="sRGB"><feFlood flood-opacity="0" result="BackgroundImageFix"/><feBlend in="SourceGraphic" in2="BackgroundImageFix" result="shape"/><feGaussianBlur stdDeviation="1" result="effect1_foregroundBlur"/></filter><filter id="filter7_f" x="535.896" y="356.897" width="86.938" height="86.969" filterUnits="userSpaceOnUse" color-interpolation-filters="sRGB"><feFlood flood-opacity="0" result="BackgroundImageFix"/><feBlend in="SourceGraphic" in2="BackgroundImageFix" result="shape"/><feGaussianBlur stdDeviation="3" result="effect1_foregroundBlur"/></filter></defs></svg>