<svg xmlns="http://www.w3.org/2000/svg" viewBox="0 0 469.609 469.609"><path d="M437.443 74.674v-64c.004-5.891-4.768-10.67-10.66-10.674a10.661 10.661 0 00-4.103.818l-256 106.667a10.667 10.667 0 00-6.571 9.728v252.715a87.783 87.783 0 00-66.368-7.381 88.152 88.152 0 00-54.656 36.523 43.284 43.284 0 00-5.781 33.344c9.524 24.74 34.598 39.885 60.928 36.8a106.628 106.628 0 0025.6-3.179 88.025 88.025 0 0054.635-36.501 45.588 45.588 0 006.869-23.701c.107-.213.107-.363.107-.619V188.402L416.11 90.61v215.339a87.703 87.703 0 00-66.368-7.403 88.152 88.152 0 00-54.656 36.523 43.284 43.284 0 00-5.781 33.344c9.524 24.74 34.598 39.885 60.928 36.8 8.63-.02 17.227-1.087 25.6-3.179a88.023 88.023 0 0054.656-36.501 43.602 43.602 0 006.144-30.784c.551-1.332.827-2.761.811-4.203V74.674z" fill="#ffc107"/></svg>