<?xml version="1.0" encoding="iso-8859-1"?>
<!-- Generator: Adobe Illustrator 19.0.0, SVG Export Plug-In . SVG Version: 6.00 Build 0)  -->
<svg version="1.1" id="Capa_1" xmlns="http://www.w3.org/2000/svg" xmlns:xlink="http://www.w3.org/1999/xlink" x="0px" y="0px"
	 viewBox="0 0 469.609 469.609" style="enable-background:new 0 0 469.609 469.609;" xml:space="preserve">
<path style="fill:#FFC107;" d="M437.443,74.674L437.443,74.674v-64c0.004-5.891-4.768-10.67-10.66-10.674
	c-1.408-0.001-2.803,0.277-4.103,0.818l-256,106.667c-3.938,1.637-6.522,5.463-6.571,9.728v64l0,0v188.715
	c-20.287-11.107-44.137-13.76-66.368-7.381c-22.246,4.672-41.828,17.757-54.656,36.523c-6.372,9.87-8.459,21.905-5.781,33.344
	c9.524,24.74,34.598,39.885,60.928,36.8c8.631-0.02,17.227-1.087,25.6-3.179c22.24-4.659,41.817-17.738,54.635-36.501
	c4.425-7.119,6.802-15.32,6.869-23.701c0.107-0.213,0.107-0.363,0.107-0.619V188.402L416.11,90.61v215.339
	c-20.281-11.123-44.135-13.784-66.368-7.403c-22.246,4.672-41.828,17.757-54.656,36.523c-6.372,9.87-8.459,21.905-5.781,33.344
	c9.524,24.74,34.598,39.885,60.928,36.8c8.63-0.02,17.227-1.087,25.6-3.179c22.248-4.654,41.834-17.734,54.656-36.501
	c5.799-9.143,7.989-20.116,6.144-30.784c0.551-1.332,0.827-2.761,0.811-4.203V74.674z"/>
<g>
</g>
<g>
</g>
<g>
</g>
<g>
</g>
<g>
</g>
<g>
</g>
<g>
</g>
<g>
</g>
<g>
</g>
<g>
</g>
<g>
</g>
<g>
</g>
<g>
</g>
<g>
</g>
<g>
</g>
</svg>
