<svg width="1287" height="1041" viewBox="0 0 1287 1041" fill="none" xmlns="http://www.w3.org/2000/svg">
<g filter="url(#filter0_f)">
<path d="M1104.49 138.453L1131.53 135.587L1134.39 162.624L1107.36 165.489L1104.49 138.453Z" stroke="white" stroke-width="2"/>
</g>
<path d="M424.266 164.736L455.764 133.239L487.261 164.736L455.764 196.233L424.266 164.736Z" stroke="white" stroke-width="2"/>
<g filter="url(#filter1_f)">
<path d="M541.447 132.374L553.577 120.243L565.708 132.374L553.577 144.505L541.447 132.374Z" stroke="white" stroke-width="2"/>
</g>
<g filter="url(#filter2_f)">
<path d="M178.451 304.097H205.639V331.285H178.451V304.097Z" stroke="white" stroke-width="2"/>
</g>
<g filter="url(#filter3_f)">
<path d="M376.819 481.319H404.007V508.507H376.819V481.319Z" stroke="white" stroke-width="2"/>
</g>
<g filter="url(#filter4_f)">
<path d="M934.127 119.119L985.722 83.9686L1020.87 135.564L969.277 170.713L934.127 119.119Z" stroke="white" stroke-width="2"/>
</g>
<g filter="url(#filter5_f)">
<path d="M1089.55 438.326L1112.59 415.281L1135.64 438.326L1112.59 461.371L1089.55 438.326Z" stroke="white" stroke-width="2"/>
</g>
<path d="M965.676 487.708L1039.04 525.122L1001.63 598.486L928.264 561.073L965.676 487.708Z" stroke="white" stroke-width="2"/>
<path d="M377.978 -54.2708C575.889 -252.177 896.759 -252.177 1094.67 -54.2708C1292.57 143.636 1292.57 464.507 1094.67 662.413C896.759 860.319 575.889 860.319 377.978 662.413C180.073 464.507 180.073 143.636 377.978 -54.2708Z" stroke="white"/>
<path opacity="0.2" d="M675.379 146.007C692.897 146.007 707.098 132.257 707.098 115.295C707.098 98.3335 692.897 84.5833 675.379 84.5833C657.861 84.5833 643.66 98.3335 643.66 115.295C643.66 132.257 657.861 146.007 675.379 146.007Z" fill="url(#paint0_linear)"/>
<path opacity="0.2" d="M746.872 95.6597C756.048 95.6597 763.486 88.2211 763.486 79.0452C763.486 69.8692 756.048 62.4306 746.872 62.4306C737.695 62.4306 730.257 69.8692 730.257 79.0452C730.257 88.2211 737.695 95.6597 746.872 95.6597Z" fill="url(#paint1_linear)"/>
<path opacity="0.2" d="M1179.86 308.424C1203.49 308.424 1222.65 289.715 1222.65 266.636C1222.65 243.557 1203.49 224.848 1179.86 224.848C1156.22 224.848 1137.06 243.557 1137.06 266.636C1137.06 289.715 1156.22 308.424 1179.86 308.424Z" fill="url(#paint2_linear)"/>
<path d="M369.064 621.285L424.146 658.84L386.592 713.924L331.507 676.368L369.064 621.285Z" fill="#FFDC4E" stroke="white" stroke-width="2"/>
<path d="M374.506 639.41L408.035 662.27L385.175 695.799L351.646 672.939L374.506 639.41Z" fill="#FFDC4E" stroke="white" stroke-width="2"/>
<g filter="url(#filter6_f)">
<path d="M1170.68 505.793L1211.27 465.208L1251.85 505.793L1211.27 546.378L1170.68 505.793Z" fill="#FFDC4E"/>
<path d="M1172.11 505.793L1211.27 466.632L1250.43 505.793L1211.27 544.954L1172.11 505.793Z" stroke="white" stroke-width="2"/>
</g>
<path fill-rule="evenodd" clip-rule="evenodd" d="M532.602 781.3C532.602 785.75 528.212 789.36 522.792 789.36C517.372 789.36 513.002 785.72 513.002 781.3C513.002 776.88 517.402 773.23 522.822 773.23C528.242 773.23 532.602 776.84 532.602 781.3Z" fill="white"/>
<path d="M563.482 756.18H528.802V759.68H563.482V756.18Z" fill="white"/>
<path d="M532.602 746H528.192V781.9H532.602V746Z" fill="white"/>
<path d="M563.632 746H559.222V781.9H563.632V746Z" fill="white"/>
<path d="M563.642 746.02H529.252V749.96H563.642V746.02Z" fill="url(#paint3_linear)"/>
<path fill-rule="evenodd" clip-rule="evenodd" d="M563.792 780.99C563.792 785.44 559.392 789.05 553.972 789.05C548.552 789.05 544.162 785.44 544.162 780.99C544.162 776.54 548.552 772.93 553.972 772.93C559.392 772.93 563.792 776.54 563.792 780.99Z" fill="url(#paint4_linear)"/>
<path d="M287.999 131.129C288.056 126.499 286.248 122.285 283.038 119.57C278.833 116.012 272.484 115.124 266.409 116.72C265.097 111.786 263.739 106.835 262.403 101.985C263.489 100.804 264.544 99.6848 265.562 98.605C272.798 90.931 278.026 85.386 276.815 75.6503C275.77 67.2522 272.201 64.3653 269.39 63.4221C266.687 62.5146 263.636 63.0857 261.022 64.989C255.083 69.3138 250.623 81.0113 254.869 96.4732C255.263 97.9097 255.663 99.3628 256.067 100.829C253.57 103.625 250.882 106.836 248.171 110.586C239.945 121.963 240.27 130.331 241.99 135.348C243.732 140.427 247.71 144.58 252.904 146.741C258.058 148.885 263.176 149.737 267.966 149.332C268.814 154.216 269.375 158.675 269.528 162.472C267.954 161.833 266.137 161.466 264.202 161.466C258.224 161.466 253.36 164.95 253.36 169.233C253.36 173.516 258.224 177 264.202 177C270.035 177 274.307 173.707 274.925 170.528C275.956 165.23 275.309 157.379 273.699 148.192C276.778 147.202 279.641 145.622 282.195 143.461C285.824 140.392 287.939 135.897 287.999 131.129ZM264.846 68.7464C265.372 68.3632 266.089 67.9571 266.763 67.9571C266.922 67.9571 267.079 67.9797 267.23 68.0303C268.551 68.4737 270.328 70.871 270.987 76.1691C271.947 83.8833 267.819 88.2608 260.981 95.5132C260.889 95.6111 260.796 95.7092 260.703 95.8084C260.661 95.6559 260.619 95.5037 260.578 95.3518C256.661 81.0857 261.117 71.4618 264.846 68.7464ZM255.49 142.291C251.827 140.767 248.884 137.655 247.619 133.966C245.623 128.147 247.543 120.957 253.171 113.173C254.749 110.991 256.303 109.015 257.819 107.197C258.868 111.026 259.934 114.948 260.972 118.882C259.594 119.634 258.276 120.529 257.053 121.564C255.908 122.532 255.908 124.102 257.053 125.07C258.197 126.038 260.052 126.038 261.197 125.07C261.57 124.754 261.956 124.455 262.35 124.173C264.141 131.167 265.79 138.085 267.058 144.465C263.459 144.711 259.57 143.989 255.49 142.291ZM264.203 172.042C261.549 172.042 259.221 170.729 259.221 169.233C259.221 167.736 261.549 166.424 264.203 166.424C266.856 166.424 269.184 167.736 269.184 169.233C269.184 170.73 266.856 172.042 264.203 172.042ZM278.052 139.956C276.407 141.347 274.636 142.421 272.756 143.176C271.396 136.388 269.621 129.042 267.681 121.562C271.866 120.318 276.158 120.76 278.894 123.075C283.106 126.638 283.554 135.301 278.052 139.956Z" fill="white" fill-opacity="0.6"/>
<g filter="url(#filter7_f)">
<path d="M42.7149 232.75H102.965V293H42.7149V232.75Z" stroke="white" stroke-width="2"/>
</g>
<g filter="url(#filter8_f)">
<path d="M191.642 -54.2705C441.008 -303.633 845.304 -303.633 1094.67 -54.2705C1344.03 195.091 1344.03 599.388 1094.67 848.749C845.304 1098.11 441.008 1098.11 191.642 848.749C-57.7177 599.388 -57.7177 195.091 191.642 -54.2705Z" stroke="white"/>
</g>
<path d="M1134.19 822.47C1132.48 818.456 1127.26 815.927 1123.56 815.058C1119.5 814.112 1115.26 814.341 1111.29 812.653C1108.11 811.303 1105.91 808.331 1104.23 804.661L1102.37 804.439L1103.69 852.677C1102.56 851.374 1101.09 850.42 1099.44 849.928C1092.23 847.358 1085.96 848.617 1083.3 851.321C1078.18 856.475 1082.75 864.456 1088.87 866.526C1095.35 868.725 1104.72 868.08 1105.6 860.677C1105.65 860.273 1105.67 859.898 1105.69 859.498L1104.92 831.93C1106.11 832.536 1107.42 832.871 1108.76 832.912C1110.96 833.271 1113.2 833.258 1115.4 832.872C1117.34 832.453 1119.24 831.855 1121.07 831.087C1122.58 830.421 1124.25 830.207 1125.88 830.472C1127.51 830.738 1129.03 831.471 1130.25 832.582C1131.05 833.08 1131.65 833.848 1131.94 834.749C1132.29 835.931 1132.41 837.19 1131.84 837.752C1133.94 836.471 1132.32 832.742 1130.92 831.379C1128.73 829.319 1125.91 828.071 1122.92 827.843C1120.74 827.736 1118.56 827.788 1116.4 827.999C1114.79 828.239 1113.17 828.329 1111.55 828.269C1109.94 828.32 1108.35 827.858 1107.02 826.949C1106.16 826.277 1105.4 825.481 1104.78 824.586L1104.63 819.233C1105.16 820.467 1106.07 821.496 1107.23 822.161C1108.88 822.873 1110.7 823.043 1112.45 822.648C1115.49 822.395 1118.52 821.964 1121.51 821.356C1124.37 820.878 1130.53 820.826 1132.38 824.632C1133.31 826.56 1132.07 827.902 1131.66 829.424C1132.28 829.141 1132.85 828.735 1133.32 828.229C1133.79 827.724 1134.15 827.13 1134.39 826.482C1134.63 825.833 1134.73 825.145 1134.69 824.456C1134.66 823.767 1134.49 823.092 1134.19 822.47Z" fill="white" fill-opacity="0.6"/>
<path d="M56.4774 705.086C49.5788 704.606 43.812 707.008 41.5682 709.808C37.2681 715.094 42.192 720.583 48.055 720.933C53.918 721.283 62.9845 718.68 63.0925 712.463C63.1161 712.144 63.1109 711.824 63.0771 711.506L57.7814 673.318C61.8777 672.942 65.9323 672.202 69.8973 671.107C77.2535 669.907 84.4362 669.779 91.7607 668.985L96.0739 699.434C94.8431 698.59 93.3853 698.141 91.8934 698.144C84.9948 697.665 79.2517 700.077 76.9841 702.866C72.6941 708.129 77.6079 713.641 83.4709 713.991C89.3339 714.341 98.4004 711.738 98.5422 705.508L98.5031 704.541L93.5477 668.593C94.3645 665.586 94.4814 662.431 93.8895 659.372C88.6081 659.336 83.3354 659.807 78.1437 660.777C76.0082 661.134 54.4285 664.438 54.4285 664.438C54.643 667.292 55.0222 670.131 55.5641 672.941C55.7335 673.025 55.9078 673.098 56.0862 673.161L60.7128 706.51C59.4764 705.62 58.0003 705.124 56.4774 705.086Z" fill="white" fill-opacity="0.7"/>
<defs>
<filter id="filter0_f" x="1095.39" y="126.487" width="48.1019" height="48.1019" filterUnits="userSpaceOnUse" color-interpolation-filters="sRGB">
<feFlood flood-opacity="0" result="BackgroundImageFix"/>
<feBlend mode="normal" in="SourceGraphic" in2="BackgroundImageFix" result="shape"/>
<feGaussianBlur stdDeviation="4" result="effect1_foregroundBlur"/>
</filter>
<filter id="filter1_f" x="536.032" y="114.829" width="35.0898" height="35.0897" filterUnits="userSpaceOnUse" color-interpolation-filters="sRGB">
<feFlood flood-opacity="0" result="BackgroundImageFix"/>
<feBlend mode="normal" in="SourceGraphic" in2="BackgroundImageFix" result="shape"/>
<feGaussianBlur stdDeviation="2" result="effect1_foregroundBlur"/>
</filter>
<filter id="filter2_f" x="175.451" y="301.097" width="33.1876" height="33.1875" filterUnits="userSpaceOnUse" color-interpolation-filters="sRGB">
<feFlood flood-opacity="0" result="BackgroundImageFix"/>
<feBlend mode="normal" in="SourceGraphic" in2="BackgroundImageFix" result="shape"/>
<feGaussianBlur stdDeviation="1" result="effect1_foregroundBlur"/>
</filter>
<filter id="filter3_f" x="369.819" y="474.319" width="41.1875" height="41.1875" filterUnits="userSpaceOnUse" color-interpolation-filters="sRGB">
<feFlood flood-opacity="0" result="BackgroundImageFix"/>
<feBlend mode="normal" in="SourceGraphic" in2="BackgroundImageFix" result="shape"/>
<feGaussianBlur stdDeviation="3" result="effect1_foregroundBlur"/>
</filter>
<filter id="filter4_f" x="927.737" y="77.5791" width="99.5242" height="99.5237" filterUnits="userSpaceOnUse" color-interpolation-filters="sRGB">
<feFlood flood-opacity="0" result="BackgroundImageFix"/>
<feBlend mode="normal" in="SourceGraphic" in2="BackgroundImageFix" result="shape"/>
<feGaussianBlur stdDeviation="2.5" result="effect1_foregroundBlur"/>
</filter>
<filter id="filter5_f" x="1086.13" y="411.867" width="52.9183" height="52.9183" filterUnits="userSpaceOnUse" color-interpolation-filters="sRGB">
<feFlood flood-opacity="0" result="BackgroundImageFix"/>
<feBlend mode="normal" in="SourceGraphic" in2="BackgroundImageFix" result="shape"/>
<feGaussianBlur stdDeviation="1" result="effect1_foregroundBlur"/>
</filter>
<filter id="filter6_f" x="1164.68" y="459.208" width="93.1698" height="93.1698" filterUnits="userSpaceOnUse" color-interpolation-filters="sRGB">
<feFlood flood-opacity="0" result="BackgroundImageFix"/>
<feBlend mode="normal" in="SourceGraphic" in2="BackgroundImageFix" result="shape"/>
<feGaussianBlur stdDeviation="3" result="effect1_foregroundBlur"/>
</filter>
<filter id="filter7_f" x="35.7148" y="225.75" width="74.2499" height="74.25" filterUnits="userSpaceOnUse" color-interpolation-filters="sRGB">
<feFlood flood-opacity="0" result="BackgroundImageFix"/>
<feBlend mode="normal" in="SourceGraphic" in2="BackgroundImageFix" result="shape"/>
<feGaussianBlur stdDeviation="3" result="effect1_foregroundBlur"/>
</filter>
<filter id="filter8_f" x="0.12207" y="-245.792" width="1286.07" height="1286.06" filterUnits="userSpaceOnUse" color-interpolation-filters="sRGB">
<feFlood flood-opacity="0" result="BackgroundImageFix"/>
<feBlend mode="normal" in="SourceGraphic" in2="BackgroundImageFix" result="shape"/>
<feGaussianBlur stdDeviation="2" result="effect1_foregroundBlur"/>
</filter>
<linearGradient id="paint0_linear" x1="624.394" y1="74.3548" x2="744.273" y2="209.168" gradientUnits="userSpaceOnUse">
<stop stop-color="white"/>
<stop offset="1" stop-color="white"/>
</linearGradient>
<linearGradient id="paint1_linear" x1="720.166" y1="56.8971" x2="785.229" y2="127.743" gradientUnits="userSpaceOnUse">
<stop stop-color="white"/>
<stop offset="1" stop-color="white"/>
</linearGradient>
<linearGradient id="paint2_linear" x1="1111.07" y1="210.93" x2="1274.34" y2="392.993" gradientUnits="userSpaceOnUse">
<stop stop-color="white"/>
<stop offset="1" stop-color="white"/>
</linearGradient>
<linearGradient id="paint3_linear" x1="1225.65" y1="3111.09" x2="2408.32" y2="3111.09" gradientUnits="userSpaceOnUse">
<stop stop-color="white"/>
<stop offset="0.27" stop-color="#FBFBFB"/>
<stop offset="0.54" stop-color="#EFF1F1"/>
<stop offset="0.82" stop-color="#DADFDF"/>
<stop offset="0.86" stop-color="#D6DCDC"/>
</linearGradient>
<linearGradient id="paint4_linear" x1="1263.01" y1="11052.8" x2="1559.3" y2="10861" gradientUnits="userSpaceOnUse">
<stop stop-color="#E4E8E8"/>
<stop offset="0.25" stop-color="#F1F3F3"/>
<stop offset="0.6" stop-color="#FCFCFC"/>
<stop offset="1" stop-color="white"/>
</linearGradient>
</defs>
</svg>
