<svg width="1287" height="1041" viewBox="0 0 1287 1041" fill="none" xmlns="http://www.w3.org/2000/svg">
<g filter="url(#filter0_f)">
<path d="M1104.49 138.453L1131.53 135.587L1134.39 162.624L1107.36 165.489L1104.49 138.453Z" stroke="white" stroke-width="2"/>
</g>
<path d="M424.266 164.736L455.764 133.239L487.261 164.736L455.764 196.233L424.266 164.736Z" stroke="white" stroke-width="2"/>
<g filter="url(#filter1_f)">
<path d="M541.447 132.374L553.577 120.243L565.708 132.374L553.577 144.505L541.447 132.374Z" stroke="white" stroke-width="2"/>
</g>
<g filter="url(#filter2_f)">
<path d="M934.127 119.119L985.722 83.9686L1020.87 135.564L969.277 170.713L934.127 119.119Z" stroke="white" stroke-width="2"/>
</g>
<g filter="url(#filter3_f)">
<path d="M1089.55 438.326L1112.59 415.281L1135.64 438.326L1112.59 461.371L1089.55 438.326Z" stroke="white" stroke-width="2"/>
</g>
<path d="M965.676 487.708L1039.04 525.122L1001.63 598.486L928.264 561.073L965.676 487.708Z" stroke="white" stroke-width="2"/>
<path opacity="0.2" d="M675.379 146.007C692.897 146.007 707.098 132.257 707.098 115.295C707.098 98.3335 692.897 84.5833 675.379 84.5833C657.861 84.5833 643.66 98.3335 643.66 115.295C643.66 132.257 657.861 146.007 675.379 146.007Z" fill="url(#paint0_linear)"/>
<path opacity="0.2" d="M746.872 95.6597C756.048 95.6597 763.486 88.2211 763.486 79.0452C763.486 69.8692 756.048 62.4306 746.872 62.4306C737.695 62.4306 730.257 69.8692 730.257 79.0452C730.257 88.2211 737.695 95.6597 746.872 95.6597Z" fill="url(#paint1_linear)"/>
<path opacity="0.2" d="M1179.86 308.424C1203.49 308.424 1222.65 289.715 1222.65 266.636C1222.65 243.557 1203.49 224.848 1179.86 224.848C1156.22 224.848 1137.06 243.557 1137.06 266.636C1137.06 289.715 1156.22 308.424 1179.86 308.424Z" fill="url(#paint2_linear)"/>
<g filter="url(#filter4_f)">
<path d="M191.642 -54.2705C441.008 -303.633 845.304 -303.633 1094.67 -54.2705C1344.03 195.091 1344.03 599.388 1094.67 848.749C845.304 1098.11 441.008 1098.11 191.642 848.749C-57.7177 599.388 -57.7177 195.091 191.642 -54.2705Z" stroke="white"/>
</g>
<g filter="url(#filter5_f)">
<path d="M178.451 304.097H205.639V331.285H178.451V304.097Z" stroke="white" stroke-width="2"/>
</g>
<g filter="url(#filter6_f)">
<path d="M376.819 481.319H404.007V508.507H376.819V481.319Z" stroke="white" stroke-width="2"/>
</g>
<path d="M377.978 -54.2708C575.889 -252.177 896.759 -252.177 1094.67 -54.2708C1292.57 143.636 1292.57 464.507 1094.67 662.413C896.759 860.319 575.889 860.319 377.978 662.413C180.073 464.507 180.073 143.636 377.978 -54.2708Z" stroke="white"/>
<path d="M369.064 621.285L424.146 658.84L386.592 713.924L331.507 676.368L369.064 621.285Z" fill="#FFDC4E" stroke="white" stroke-width="2"/>
<path d="M374.506 639.41L408.035 662.27L385.175 695.799L351.646 672.939L374.506 639.41Z" fill="#FFDC4E" stroke="white" stroke-width="2"/>
<g filter="url(#filter7_f)">
<path d="M1170.68 505.793L1211.27 465.208L1251.85 505.793L1211.27 546.378L1170.68 505.793Z" fill="#FFDC4E"/>
<path d="M1172.11 505.793L1211.27 466.632L1250.43 505.793L1211.27 544.954L1172.11 505.793Z" stroke="white" stroke-width="2"/>
</g>
<defs>
<filter id="filter0_f" x="1095.39" y="126.487" width="48.1019" height="48.1019" filterUnits="userSpaceOnUse" color-interpolation-filters="sRGB">
<feFlood flood-opacity="0" result="BackgroundImageFix"/>
<feBlend mode="normal" in="SourceGraphic" in2="BackgroundImageFix" result="shape"/>
<feGaussianBlur stdDeviation="4" result="effect1_foregroundBlur"/>
</filter>
<filter id="filter1_f" x="536.032" y="114.829" width="35.0898" height="35.0897" filterUnits="userSpaceOnUse" color-interpolation-filters="sRGB">
<feFlood flood-opacity="0" result="BackgroundImageFix"/>
<feBlend mode="normal" in="SourceGraphic" in2="BackgroundImageFix" result="shape"/>
<feGaussianBlur stdDeviation="2" result="effect1_foregroundBlur"/>
</filter>
<filter id="filter2_f" x="927.737" y="77.5791" width="99.5242" height="99.5237" filterUnits="userSpaceOnUse" color-interpolation-filters="sRGB">
<feFlood flood-opacity="0" result="BackgroundImageFix"/>
<feBlend mode="normal" in="SourceGraphic" in2="BackgroundImageFix" result="shape"/>
<feGaussianBlur stdDeviation="2.5" result="effect1_foregroundBlur"/>
</filter>
<filter id="filter3_f" x="1086.13" y="411.867" width="52.9183" height="52.9183" filterUnits="userSpaceOnUse" color-interpolation-filters="sRGB">
<feFlood flood-opacity="0" result="BackgroundImageFix"/>
<feBlend mode="normal" in="SourceGraphic" in2="BackgroundImageFix" result="shape"/>
<feGaussianBlur stdDeviation="1" result="effect1_foregroundBlur"/>
</filter>
<filter id="filter4_f" x="0.12207" y="-245.792" width="1286.07" height="1286.06" filterUnits="userSpaceOnUse" color-interpolation-filters="sRGB">
<feFlood flood-opacity="0" result="BackgroundImageFix"/>
<feBlend mode="normal" in="SourceGraphic" in2="BackgroundImageFix" result="shape"/>
<feGaussianBlur stdDeviation="2" result="effect1_foregroundBlur"/>
</filter>
<filter id="filter5_f" x="175.451" y="301.097" width="33.1876" height="33.1875" filterUnits="userSpaceOnUse" color-interpolation-filters="sRGB">
<feFlood flood-opacity="0" result="BackgroundImageFix"/>
<feBlend mode="normal" in="SourceGraphic" in2="BackgroundImageFix" result="shape"/>
<feGaussianBlur stdDeviation="1" result="effect1_foregroundBlur"/>
</filter>
<filter id="filter6_f" x="369.819" y="474.319" width="41.1875" height="41.1875" filterUnits="userSpaceOnUse" color-interpolation-filters="sRGB">
<feFlood flood-opacity="0" result="BackgroundImageFix"/>
<feBlend mode="normal" in="SourceGraphic" in2="BackgroundImageFix" result="shape"/>
<feGaussianBlur stdDeviation="3" result="effect1_foregroundBlur"/>
</filter>
<filter id="filter7_f" x="1164.68" y="459.208" width="93.1698" height="93.1698" filterUnits="userSpaceOnUse" color-interpolation-filters="sRGB">
<feFlood flood-opacity="0" result="BackgroundImageFix"/>
<feBlend mode="normal" in="SourceGraphic" in2="BackgroundImageFix" result="shape"/>
<feGaussianBlur stdDeviation="3" result="effect1_foregroundBlur"/>
</filter>
<linearGradient id="paint0_linear" x1="624.394" y1="74.3548" x2="744.273" y2="209.168" gradientUnits="userSpaceOnUse">
<stop stop-color="white"/>
<stop offset="1" stop-color="white"/>
</linearGradient>
<linearGradient id="paint1_linear" x1="720.166" y1="56.8971" x2="785.229" y2="127.743" gradientUnits="userSpaceOnUse">
<stop stop-color="white"/>
<stop offset="1" stop-color="white"/>
</linearGradient>
<linearGradient id="paint2_linear" x1="1111.07" y1="210.93" x2="1274.34" y2="392.993" gradientUnits="userSpaceOnUse">
<stop stop-color="white"/>
<stop offset="1" stop-color="white"/>
</linearGradient>
</defs>
</svg>
