<svg xmlns="http://www.w3.org/2000/svg" viewBox="0 0 378.47 73.14"><g data-name="Слой 2"><g data-name="Слой 1"><path d="M0 0v69.41c.12 1 .34 3.31.34 3.27 0 .42 3.76 1.16 3.76-1.12 0-1.25 3.65-1.57 3.65-3 0 .93 4.84.52 4.84 0 0-.14 3.8-2.49 3.8-2.6 0 .61 4.51-2 4.51-.82s4.78 0 4.78-.18c0-.74 3.59-2.48 3.59-3.13 0-.3 4.46-.5 4.46-1 0 1 3.73-3.21 3.73-2.77 0 .21 4.8.35 4.8-.05 0 1.07 4.12-1 4.12-1.5 0-2.14 4-2.44 4-3.18s5 2.65 5 2c0 1.12 5 .61 5-.23 0 .33 4.79-2.61 4.79-1.74 0-.54 4.47.13 4.47-.52C69.75 52 73 50 73 50.14c0-.19 3.18-2.28 3.18-2.69 0-1.09 4.5-.33 4.5-.08 0 .47 4.26-.45 4.26-.36 0 .26 4.31-2.6 4.31-2.8 0 .5 4.48 1.35 4.48 1.91 0-.91 4.38-1.93 4.38-.88 0-1 4.44-.76 4.44.62 0 0 4.41.75 4.41-.09a30.39 30.39 0 004.35-2.07c0 .08 4.39.64 4.39-.51 0-.32 4.1 1 4.1.6 0 .12 3.7 2.69 3.7 1.8 0 .47 3.65 2 3.65 2.52 0-.74 2.81 3.2 2.81 3.51 0-.13 3.65 1.08 3.65 2.56 0 .16 4.32.17 4.32.83 0 .41 4.79.49 4.79.62a27.06 27.06 0 003.47-3.63c0 1.31 3.74-3 3.74-2.66 0 .95 4.45-.5 4.45-1.63 0-.44 3.84-.44 3.84-1.65 0-.08 3.39-3.15 3.39-2.74 0 1.26 4.16.17 4.16-.83 0-.66 4.31 1.13 4.31.1 0 1.12 3.89-1.36 3.89-1.57 0-.86 4.29 1.55 4.29.89 0-1.08 3.88-3 3.88-2.55 0 .09 4.12-1 4.12-.67 0-.57 4.19 0 4.19.87 0-1.53 4.16 2 4.16 1.67 0-1.14 4.06-3.67 4.06-2.79 0-.06 4.1 1.2 4.1.61 0-2 4.21-.78 4.21-.35 0 .67 3.54 3.81 3.54 3.26 0 1.61 3.41 2.41 3.41 2 0 .3 4 1.31 4 1 0 .34 3.89-.37 3.89 1.44 0 1.08 4.37-.74 4.37.59a43.49 43.49 0 013 3.77c0-.66 4.15 2.09 4.15 1.53 0-.94 4.16 1.55 4.16 1.5 0 .41 4.59-.75 4.59-.27 0-.65 4.33.22 4.33.26 0-.31 4.18.56 4.18 1.37 0 .33 4.32 1.65 4.32 1.75 0-.36 4.4-.58 4.4-.83 0 0 4.27-2.85 4.27-1.34 0-1.81 4.15-.89 4.15-1.29a23.76 23.76 0 004.91 1.69c0-.55 4-2.4 4-2.09 0-1.16 3.49-3.66 3.49-3.34s4.17-.9 4.17-1.53 4.79.22 4.79.72c0-.38 4.22-1.4 4.22-1.44 0-.67 4.41.87 4.41.75s4.15.67 4.15 1.33 4.41.86 4.41.09c0 .13 4.17 2.32 4.17 1.34 0 .29 4.8-1.93 4.8-.87s3.88 2.34 3.88 2.35 4.28 1.21 4.28 2.37c0 .52 4.55-3.33 4.55-2.09 0 .86 4.12-2.36 4.12-2.23 0 .61 5.15 1 5.15 1.73 0 1.24 3.91-4 3.91-2.85 0 .22 4.8.47 4.8.66 0 .48 3.73-1.11 3.73-1.27 0 .27 3.89.52 3.89.27 0 .42 4.1-1.27 4.1-1 0-.16 4.38-.74 4.38.18 0 .1 2.67 2.52 2.67 3.62 0 1.88 4 .75 4 1.89 0-.6 4.26-.76 4.26 1.47 0-.16 2.42 4.91 2.42 4.41 0-1 1.8-.14 3.07.48V0z" fill="#fcd427" data-name="Layer 1"/></g></g></svg>