<svg width="161" height="90" viewBox="0 0 161 90" fill="none" xmlns="http://www.w3.org/2000/svg">
<path d="M34.2402 3.16016C33.0553 5.52083 31.8841 7.92708 30.7266 10.3789C30.0065 11.8828 29.2865 13.3822 28.5664 14.877C27.3997 18.9147 26.5612 23.0026 26.0508 27.1406C25.5404 31.2786 25.3626 34.847 25.5176 37.8457C25.5814 39.1217 25.7044 40.4297 25.8867 41.7695C26.0781 43.1094 26.3971 44.4036 26.8438 45.6523C27.2995 46.901 27.9557 48.0221 28.8125 49.0156C28.9401 49.1706 28.972 49.3255 28.9082 49.4805C28.8535 49.6445 28.7487 49.7539 28.5938 49.8086C28.4388 49.8724 28.2793 49.8314 28.1152 49.6855C27.7415 49.2845 27.4089 48.8561 27.1172 48.4004C25.8776 46.2676 25.0846 43.5788 24.7383 40.334C24.3919 37.0983 24.3919 33.6165 24.7383 29.8887C25.0938 26.1699 25.6908 22.5195 26.5293 18.9375C25.5632 20.8607 24.5697 22.7702 23.5488 24.666C22.528 26.5618 21.4434 28.4167 20.2949 30.2305C20.2129 30.349 20.1263 30.472 20.0352 30.5996C19.625 31.2376 19.11 31.9622 18.4902 32.7734C17.8704 33.5846 17.2005 34.2591 16.4805 34.7969C15.7604 35.3346 15.0404 35.5215 14.3203 35.3574C13.974 35.2207 13.7461 34.9062 13.6367 34.4141C13.5273 33.931 13.4772 33.3887 13.4863 32.7871C13.5046 32.1947 13.541 31.6615 13.5957 31.1875C13.6139 30.9596 13.6276 30.7682 13.6367 30.6133C13.8555 28.5807 14.1289 26.5618 14.457 24.5566C14.6484 23.2806 14.8535 22 15.0723 20.7148C15.3639 19.0378 15.6283 17.3607 15.8652 15.6836C16.1113 13.9974 16.2799 12.3021 16.3711 10.5977C16.3802 10.4883 16.3893 10.3698 16.3984 10.2422C16.4167 10.0326 16.4258 9.83203 16.4258 9.64062C16.4258 9.44922 16.3939 9.3125 16.3301 9.23047C15.6009 8.92969 14.8398 9.04818 14.0469 9.58594C13.263 10.1237 12.4883 10.9212 11.7227 11.9785C10.9661 13.0267 10.2552 14.1615 9.58984 15.3828C8.93359 16.6042 8.35938 17.748 7.86719 18.8145C7.38411 19.8717 7.02409 20.6829 6.78711 21.248C4.60872 26.4342 2.72201 31.7298 1.12695 37.1348C1.06315 37.3079 0.949219 37.4082 0.785156 37.4355C0.630208 37.472 0.488932 37.4401 0.361328 37.3398C0.233724 37.2487 0.179036 37.1074 0.197266 36.916C0.197266 36.916 0.224609 36.7292 0.279297 36.3555C0.333984 35.9909 0.397786 35.5397 0.470703 35.002C0.552734 34.4642 0.634766 33.9264 0.716797 33.3887C0.798828 32.86 0.867188 32.4089 0.921875 32.0352C0.976562 31.6706 1.00391 31.4883 1.00391 31.4883C1.26823 29.6927 1.50977 27.8926 1.72852 26.0879C1.94727 24.2832 2.11133 22.474 2.2207 20.6602C2.32096 18.8555 2.29362 17.0553 2.13867 15.2598C2.13867 15.0501 2.21159 14.9043 2.35742 14.8223C2.50326 14.7402 2.65365 14.7266 2.80859 14.7812C2.97266 14.8359 3.06836 14.9681 3.0957 15.1777C3.29622 18.0033 3.25065 20.8516 2.95898 23.7227C2.67643 26.5846 2.30729 29.4375 1.85156 32.2812C3.21875 28.4805 4.70443 24.7298 6.30859 21.0293C7.08333 19.252 7.91732 17.4974 8.81055 15.7656C9.70378 14.0247 10.7292 12.3659 11.8867 10.7891C12.2513 10.2878 12.6797 9.80013 13.1719 9.32617C13.6732 8.85221 14.2201 8.5013 14.8125 8.27344C15.4049 8.04557 16.0339 8.05469 16.6992 8.30078C16.6992 8.30078 16.7311 8.32357 16.7949 8.36914C16.8587 8.4056 16.9408 8.48307 17.041 8.60156C17.1413 8.72005 17.2415 8.89779 17.3418 9.13477C17.4421 9.37174 17.5378 9.68164 17.6289 10.0645C17.7474 10.8118 17.7474 11.5592 17.6289 12.3066C17.6107 12.4342 17.597 12.5618 17.5879 12.6895C17.2962 15.1595 16.918 17.6068 16.4531 20.0312C16.4076 20.2773 16.362 20.5189 16.3164 20.7559C16.1888 21.4486 16.0566 22.1686 15.9199 22.916C15.4004 25.5957 14.9674 28.1979 14.6211 30.7227C14.4753 31.707 14.4115 32.6914 14.4297 33.6758C14.4388 33.8307 14.457 33.9857 14.4844 34.1406C14.5117 34.2956 14.5573 34.4277 14.6211 34.5371C15.3958 34.5736 16.2891 34.0495 17.3008 32.9648C18.3216 31.8893 19.4017 30.431 20.541 28.5898C21.6895 26.7487 22.8424 24.707 24 22.4648C25.1667 20.2135 26.2923 17.944 27.377 15.6562C28.6074 11.3086 30.0065 7.80404 31.5742 5.14258C32.0938 4.24023 32.7227 3.39714 33.4609 2.61328C33.5612 2.51302 33.6751 2.46289 33.8027 2.46289C33.9303 2.46289 34.0443 2.50846 34.1445 2.59961C34.2995 2.77279 34.3314 2.95964 34.2402 3.16016ZM42.8672 24.1465C42.9036 24.0827 42.9538 24.0553 43.0176 24.0645C43.0814 24.0736 43.1315 24.1055 43.168 24.1602C43.2044 24.2057 43.2044 24.2604 43.168 24.3242C42.9036 24.6979 42.5983 25.0306 42.252 25.3223C41.9056 25.6048 41.5456 25.8737 41.1719 26.1289C41.1081 26.1745 41.0488 26.2155 40.9941 26.252C40.0918 26.8717 39.2214 27.3503 38.3828 27.6875C37.5443 28.0156 36.8151 28.0794 36.1953 27.8789C35.5846 27.6693 35.1562 27.0586 34.9102 26.0469C34.3086 26.9401 33.6615 27.8014 32.9688 28.6309C32.6042 28.9954 32.2305 29.1003 31.8477 28.9453C31.4557 28.7812 31.3008 28.4349 31.3828 27.9062C31.7565 26.2474 32.5358 24.8073 33.7207 23.5859C34.1035 23.194 34.5729 22.8796 35.1289 22.6426C35.3477 22.5605 35.5254 22.5879 35.6621 22.7246C35.8079 22.8613 35.8763 23.0299 35.8672 23.2305C35.8581 23.4219 35.7441 23.5632 35.5254 23.6543C34.8418 24.0007 34.2676 24.4928 33.8027 25.1309C33.347 25.7598 32.9915 26.4434 32.7363 27.1816C33.4837 26.2155 34.181 25.2129 34.8281 24.1738C34.9284 24.0189 35.0605 23.9368 35.2246 23.9277C35.3978 23.9186 35.5436 23.9688 35.6621 24.0781C35.7897 24.1875 35.849 24.3333 35.8398 24.5156C35.6576 25.0716 35.6074 25.6458 35.6895 26.2383C35.7806 26.8216 36.127 27.2318 36.7285 27.4688C37.6309 27.4596 38.5423 27.2044 39.4629 26.7031C40.3835 26.2018 41.2038 25.6732 41.9238 25.1172C42.2975 24.8438 42.612 24.5202 42.8672 24.1465ZM47.4336 24.7207C47.4974 24.7663 47.5749 24.7936 47.666 24.8027C47.7663 24.8118 47.8711 24.8164 47.9805 24.8164C48.099 24.8073 48.1992 24.8118 48.2812 24.8301C48.3724 24.8392 48.4225 24.8802 48.4316 24.9531C48.3952 25.0625 48.2904 25.14 48.1172 25.1855C47.9531 25.222 47.7754 25.2357 47.584 25.2266C47.3926 25.2174 47.2422 25.1901 47.1328 25.1445C46.8411 24.9987 46.6361 24.7982 46.5176 24.543C46.3991 24.2786 46.3444 23.9915 46.3535 23.6816C45.4329 24.4746 44.6354 25.3861 43.9609 26.416C43.2956 27.446 42.7259 28.5169 42.252 29.6289C42.2246 29.7018 42.179 29.7565 42.1152 29.793C42.0423 29.8294 41.9648 29.8294 41.8828 29.793C41.8099 29.7565 41.7643 29.6973 41.7461 29.6152C41.7188 29.5423 41.7051 29.4648 41.7051 29.3828C41.7051 29.3008 41.696 29.2279 41.6777 29.1641C41.5684 27.3685 41.9648 25.696 42.8672 24.1465C42.9948 23.9642 43.1497 23.8822 43.332 23.9004C43.5143 23.9186 43.6647 24.0007 43.7832 24.1465C43.9017 24.2923 43.9154 24.4655 43.8242 24.666C43.5872 25.14 43.3958 25.623 43.25 26.1152C44.1523 24.4564 45.36 23.0664 46.873 21.9453C47.0371 21.8359 47.1966 21.8132 47.3516 21.877C47.5156 21.9408 47.6296 22.0501 47.6934 22.2051C47.7663 22.36 47.7435 22.5195 47.625 22.6836C47.4336 22.9753 47.2786 23.3262 47.1602 23.7363C47.0417 24.1465 47.1328 24.4746 47.4336 24.7207ZM52.6699 31.707C52.7155 31.707 52.752 31.7207 52.7793 31.748C52.8158 31.7845 52.8294 31.8255 52.8203 31.8711C52.8203 31.9167 52.8021 31.9531 52.7656 31.9805C52.7292 32.0169 52.6882 32.0352 52.6426 32.0352C52.4056 32.0352 52.1686 32.0534 51.9316 32.0898C50.7376 35.2161 49.2565 38.224 47.4883 41.1133C47.2695 41.3685 47.0781 41.4596 46.9141 41.3867C46.75 41.3229 46.6178 41.1862 46.5176 40.9766C46.4082 40.776 46.3398 40.5846 46.3125 40.4023C46.1029 39.2539 46.2305 38.1055 46.6953 36.957C47.151 35.8086 47.7663 34.7695 48.541 33.8398C49.1882 33.0833 49.9629 32.5 50.8652 32.0898C51.9225 29.5651 52.6654 27.1452 53.0938 24.8301C52.4193 25.8145 51.7083 26.7852 50.9609 27.7422C50.9154 27.806 50.8652 27.8652 50.8105 27.9199C50.6647 28.1387 50.4824 28.3027 50.2637 28.4121C49.653 28.4303 49.3066 28.1569 49.2246 27.5918C49.1426 27.0176 49.2109 26.3841 49.4297 25.6914C49.6393 24.9987 49.8809 24.4792 50.1543 24.1328C50.3639 23.8229 50.5918 23.6771 50.8379 23.6953C51.084 23.7135 51.2435 23.8229 51.3164 24.0234C51.3984 24.224 51.3027 24.4518 51.0293 24.707C50.8288 24.862 50.6374 25.1309 50.4551 25.5137C50.2728 25.8965 50.1452 26.293 50.0723 26.7031C49.9902 27.1042 50.0085 27.4141 50.127 27.6328C50.4004 27.332 50.7148 26.9583 51.0703 26.5117C51.4258 26.0651 51.7448 25.6413 52.0273 25.2402C52.1549 25.0488 52.3008 24.8483 52.4648 24.6387C52.6471 24.4017 52.8158 24.1602 52.9707 23.9141C53.1348 23.6589 53.2396 23.4082 53.2852 23.1621C53.3034 23.0254 53.3672 22.9206 53.4766 22.8477C53.987 22.5104 54.2559 22.6471 54.2832 23.2578C54.3105 23.8685 54.2057 24.6842 53.9688 25.7051C53.7409 26.7168 53.4857 27.6693 53.2031 28.5625C52.9297 29.4466 52.7474 29.9935 52.6562 30.2031C52.4648 30.7227 52.2689 31.2376 52.0684 31.748C52.2689 31.7207 52.4694 31.707 52.6699 31.707ZM46.8867 40.0605C48.2266 37.8184 49.498 35.2982 50.7012 32.5C49.5072 33.1562 48.582 34.0859 47.9258 35.2891C47.4154 36.1823 47.0645 37.1165 46.873 38.0918C46.8639 38.1283 46.8548 38.1738 46.8457 38.2285C46.8001 38.502 46.7682 38.8118 46.75 39.1582C46.7318 39.5137 46.7773 39.8145 46.8867 40.0605ZM64.4824 24.1191C64.7103 24.0918 64.7878 24.1419 64.7148 24.2695C64.651 24.388 64.4915 24.5521 64.2363 24.7617C63.9811 24.9714 63.6986 25.1901 63.3887 25.418C63.0879 25.6367 62.8145 25.8281 62.5684 25.9922C62.3223 26.1471 62.1719 26.2383 62.1172 26.2656C61.4336 26.694 60.7318 27.0951 60.0117 27.4688C59.2917 27.8333 58.5352 28.1204 57.7422 28.3301C57.0951 28.5215 56.6484 28.4121 56.4023 28.002C56.1562 27.5918 56.0833 27.0996 56.1836 26.5254C56.2839 25.623 56.5983 24.8027 57.127 24.0645C57.2819 23.8913 57.4505 23.832 57.6328 23.8867C57.8242 23.9323 57.9655 24.0417 58.0566 24.2148C58.1478 24.3789 58.125 24.5566 57.9883 24.748C57.6875 25.1764 57.4368 25.6549 57.2363 26.1836C57.0358 26.7031 56.972 27.2227 57.0449 27.7422C57.2363 27.9245 57.5007 27.9837 57.8379 27.9199C58.1751 27.8561 58.4941 27.7604 58.7949 27.6328C58.9408 27.5781 59.0684 27.5371 59.1777 27.5098C60.153 27.1087 61.0918 26.6302 61.9941 26.0742C62.9056 25.5182 63.735 24.8665 64.4824 24.1191ZM57.9883 22.7656C57.651 22.7201 57.4733 22.5697 57.4551 22.3145C57.446 22.0592 57.5371 21.8359 57.7285 21.6445C57.929 21.4531 58.166 21.4395 58.4395 21.6035C58.6035 21.722 58.6764 21.8724 58.6582 22.0547C58.64 22.2279 58.5671 22.3874 58.4395 22.5332C58.3118 22.679 58.1615 22.7565 57.9883 22.7656ZM73.9844 24.1465C74.0208 24.0827 74.071 24.0553 74.1348 24.0645C74.1986 24.0736 74.2487 24.1055 74.2852 24.1602C74.3216 24.2057 74.3216 24.2604 74.2852 24.3242C74.0208 24.6979 73.7155 25.0306 73.3691 25.3223C73.0228 25.6048 72.6628 25.8737 72.2891 26.1289C72.2253 26.1745 72.166 26.2155 72.1113 26.252C71.209 26.8717 70.3385 27.3503 69.5 27.6875C68.6615 28.0156 67.9323 28.0794 67.3125 27.8789C66.7018 27.6693 66.2734 27.0586 66.0273 26.0469C65.4258 26.9401 64.7786 27.8014 64.0859 28.6309C63.7214 28.9954 63.3477 29.1003 62.9648 28.9453C62.5729 28.7812 62.418 28.4349 62.5 27.9062C62.8737 26.2474 63.653 24.8073 64.8379 23.5859C65.2207 23.194 65.6901 22.8796 66.2461 22.6426C66.4648 22.5605 66.6426 22.5879 66.7793 22.7246C66.9251 22.8613 66.9935 23.0299 66.9844 23.2305C66.9753 23.4219 66.8613 23.5632 66.6426 23.6543C65.959 24.0007 65.3848 24.4928 64.9199 25.1309C64.4642 25.7598 64.1087 26.4434 63.8535 27.1816C64.6009 26.2155 65.2982 25.2129 65.9453 24.1738C66.0456 24.0189 66.1777 23.9368 66.3418 23.9277C66.515 23.9186 66.6608 23.9688 66.7793 24.0781C66.9069 24.1875 66.9661 24.3333 66.957 24.5156C66.7747 25.0716 66.7246 25.6458 66.8066 26.2383C66.8978 26.8216 67.2441 27.2318 67.8457 27.4688C68.748 27.4596 69.6595 27.2044 70.5801 26.7031C71.5007 26.2018 72.321 25.6732 73.041 25.1172C73.4147 24.8438 73.7292 24.5202 73.9844 24.1465ZM115.875 5.82617C117.634 6.3457 118.951 7.14323 119.826 8.21875C120.71 9.28516 121.234 10.5156 121.398 11.9102C121.572 13.2956 121.471 14.7311 121.098 16.2168C120.724 17.6934 120.163 19.1061 119.416 20.4551C118.313 22.4694 116.878 24.347 115.109 26.0879C113.341 27.8197 111.359 29.2962 109.162 30.5176C106.975 31.7389 104.691 32.5729 102.312 33.0195C99.9427 33.4661 97.5957 33.4023 95.2715 32.8281C94.2233 36.2096 93.1296 39.5775 91.9902 42.9316C91.7077 43.752 91.4297 44.5768 91.1562 45.4062C91.0924 45.5885 90.9785 45.7207 90.8145 45.8027C90.6504 45.8848 90.4772 45.8939 90.2949 45.8301C90.0944 45.7663 89.9531 45.6432 89.8711 45.4609C89.7982 45.2786 89.8027 45.0918 89.8848 44.9004C91.097 42.2572 92.1589 39.5592 93.0703 36.8066C93.5352 35.403 93.9818 33.9948 94.4102 32.582C93.7448 32.3633 93.0931 32.099 92.4551 31.7891C90.0124 30.5404 88.1074 28.722 86.7402 26.334C85.8835 24.7845 85.3138 23.1302 85.0312 21.3711C84.9948 21.0703 85.0723 20.8516 85.2637 20.7148C85.4551 20.569 85.6647 20.5234 85.8926 20.5781C86.1296 20.6328 86.2891 20.806 86.3711 21.0977C86.3255 22.3464 86.485 23.5768 86.8496 24.7891C87.2142 25.9375 87.7611 26.9948 88.4902 27.9609C89.2467 28.9635 90.1445 29.8112 91.1836 30.5039C92.2318 31.2057 93.3529 31.7435 94.5469 32.1172C95.4674 29.0456 96.2513 25.9466 96.8984 22.8203C97.1536 21.5716 97.3724 20.3138 97.5547 19.0469C97.737 17.7799 97.8418 16.5085 97.8691 15.2324C97.8965 14.9316 98.0195 14.7311 98.2383 14.6309C98.4661 14.5306 98.6849 14.5352 98.8945 14.6445C99.1133 14.7539 99.2272 14.9681 99.2363 15.2871C99.0723 17.2559 98.7806 19.2064 98.3613 21.1387C97.5501 24.9212 96.5703 28.6628 95.4219 32.3633C95.6406 32.418 95.8639 32.4681 96.0918 32.5137C98.5345 32.9329 100.991 32.778 103.461 32.0488C105.931 31.3197 108.26 30.1712 110.447 28.6035C112.644 27.0358 114.544 25.2083 116.148 23.1211C117.753 21.0339 118.906 18.8464 119.607 16.5586C120.282 14.1979 120.359 12.2702 119.84 10.7754C119.329 9.2806 118.4 8.15951 117.051 7.41211C115.702 6.66471 114.116 6.23177 112.293 6.11328C110.47 5.99479 108.592 6.12695 106.66 6.50977C104.254 6.97461 101.93 7.69922 99.6875 8.68359C96.9076 9.91406 94.2461 11.3724 91.7031 13.0586C89.1602 14.7448 86.8268 16.6771 84.7031 18.8555C83.8919 19.694 83.1035 20.6465 82.3379 21.7129C81.5723 22.7793 80.9388 23.9049 80.4375 25.0898C79.9362 26.2747 79.6764 27.4733 79.6582 28.6855C79.64 29.8978 79.9818 31.069 80.6836 32.1992C81.2031 32.9922 81.8867 33.5664 82.7344 33.9219C83.582 34.2865 84.4707 34.3913 85.4004 34.2363C85.7012 34.209 85.9154 34.2956 86.043 34.4961C86.1797 34.6966 86.2161 34.9108 86.1523 35.1387C86.0885 35.3665 85.9108 35.5169 85.6191 35.5898C83.7598 35.8177 82.224 35.4622 81.0117 34.5234C79.8086 33.5938 78.9974 32.3451 78.5781 30.7773C78.168 29.2188 78.2181 27.6146 78.7285 25.9648C79.4486 23.7682 80.597 21.722 82.1738 19.8262C83.7507 17.9212 85.5371 16.2031 87.5332 14.6719C89.5293 13.1315 91.5117 11.8053 93.4805 10.6934C96.4883 9.04362 99.6419 7.75391 102.941 6.82422C105.038 6.19531 107.18 5.73958 109.367 5.45703C111.555 5.17448 113.724 5.29753 115.875 5.82617ZM129.697 24.1191C129.925 24.0918 130.003 24.1419 129.93 24.2695C129.866 24.388 129.706 24.5521 129.451 24.7617C129.196 24.9714 128.913 25.1901 128.604 25.418C128.303 25.6367 128.029 25.8281 127.783 25.9922C127.537 26.1471 127.387 26.2383 127.332 26.2656C126.648 26.694 125.947 27.0951 125.227 27.4688C124.507 27.8333 123.75 28.1204 122.957 28.3301C122.31 28.5215 121.863 28.4121 121.617 28.002C121.371 27.5918 121.298 27.0996 121.398 26.5254C121.499 25.623 121.813 24.8027 122.342 24.0645C122.497 23.8913 122.665 23.832 122.848 23.8867C123.039 23.9323 123.18 24.0417 123.271 24.2148C123.363 24.3789 123.34 24.5566 123.203 24.748C122.902 25.1764 122.652 25.6549 122.451 26.1836C122.251 26.7031 122.187 27.2227 122.26 27.7422C122.451 27.9245 122.715 27.9837 123.053 27.9199C123.39 27.8561 123.709 27.7604 124.01 27.6328C124.156 27.5781 124.283 27.5371 124.393 27.5098C125.368 27.1087 126.307 26.6302 127.209 26.0742C128.12 25.5182 128.95 24.8665 129.697 24.1191ZM123.203 22.7656C122.866 22.7201 122.688 22.5697 122.67 22.3145C122.661 22.0592 122.752 21.8359 122.943 21.6445C123.144 21.4531 123.381 21.4395 123.654 21.6035C123.818 21.722 123.891 21.8724 123.873 22.0547C123.855 22.2279 123.782 22.3874 123.654 22.5332C123.527 22.679 123.376 22.7565 123.203 22.7656ZM139.199 24.1465C139.236 24.0827 139.286 24.0553 139.35 24.0645C139.413 24.0736 139.464 24.1055 139.5 24.1602C139.536 24.2057 139.536 24.2604 139.5 24.3242C139.236 24.6979 138.93 25.0306 138.584 25.3223C138.238 25.6048 137.878 25.8737 137.504 26.1289C137.44 26.1745 137.381 26.2155 137.326 26.252C136.424 26.8717 135.553 27.3503 134.715 27.6875C133.876 28.0156 133.147 28.0794 132.527 27.8789C131.917 27.6693 131.488 27.0586 131.242 26.0469C130.641 26.9401 129.993 27.8014 129.301 28.6309C128.936 28.9954 128.562 29.1003 128.18 28.9453C127.788 28.7812 127.633 28.4349 127.715 27.9062C128.089 26.2474 128.868 24.8073 130.053 23.5859C130.436 23.194 130.905 22.8796 131.461 22.6426C131.68 22.5605 131.857 22.5879 131.994 22.7246C132.14 22.8613 132.208 23.0299 132.199 23.2305C132.19 23.4219 132.076 23.5632 131.857 23.6543C131.174 24.0007 130.6 24.4928 130.135 25.1309C129.679 25.7598 129.324 26.4434 129.068 27.1816C129.816 26.2155 130.513 25.2129 131.16 24.1738C131.26 24.0189 131.393 23.9368 131.557 23.9277C131.73 23.9186 131.876 23.9688 131.994 24.0781C132.122 24.1875 132.181 24.3333 132.172 24.5156C131.99 25.0716 131.939 25.6458 132.021 26.2383C132.113 26.8216 132.459 27.2318 133.061 27.4688C133.963 27.4596 134.874 27.2044 135.795 26.7031C136.715 26.2018 137.536 25.6732 138.256 25.1172C138.63 24.8438 138.944 24.5202 139.199 24.1465ZM150.82 24.1328C150.866 24.0781 150.916 24.0599 150.971 24.0781C151.025 24.0872 151.066 24.1146 151.094 24.1602C151.121 24.2057 151.117 24.2559 151.08 24.3105C150.989 24.4199 150.893 24.5156 150.793 24.5977C150.237 25.026 149.521 25.5091 148.646 26.0469C147.781 26.5846 146.896 26.9674 145.994 27.1953C145.101 27.4141 144.335 27.2637 143.697 26.7441C143.46 26.498 143.301 26.1061 143.219 25.5684C143.146 25.0215 143.146 24.4928 143.219 23.9824C142.353 24.6387 141.519 25.3906 140.717 26.2383C139.924 27.0768 139.299 27.9336 138.844 28.8086C138.725 28.9453 138.584 29.0091 138.42 29C138.256 28.9909 138.119 28.9271 138.01 28.8086C137.9 28.681 137.864 28.526 137.9 28.3438C138.064 27.6055 138.27 26.8717 138.516 26.1426C138.607 25.8509 138.693 25.5592 138.775 25.2676C138.775 25.2676 138.775 25.263 138.775 25.2539C138.876 24.9349 138.962 24.6113 139.035 24.2832C139.099 24.0553 139.227 23.9232 139.418 23.8867C139.609 23.8411 139.783 23.8776 139.938 23.9961C140.092 24.1055 140.147 24.2786 140.102 24.5156C139.947 25.1719 139.764 25.8281 139.555 26.4844C139.5 26.6393 139.45 26.7897 139.404 26.9355C140.024 26.3613 140.63 25.7689 141.223 25.1582C142.025 24.3197 142.859 23.5267 143.725 22.7793C143.834 22.6882 143.934 22.6745 144.025 22.7383C144.126 22.8021 144.208 22.9069 144.271 23.0527C144.372 23.2988 144.395 23.5586 144.34 23.832C144.294 24.1055 144.221 24.3789 144.121 24.6523C144.012 24.9622 143.93 25.2721 143.875 25.582C143.829 25.8828 143.884 26.1745 144.039 26.457C144.44 26.8307 144.91 26.9993 145.447 26.9629C145.994 26.9264 146.541 26.7897 147.088 26.5527C147.644 26.3158 148.127 26.0788 148.537 25.8418C148.601 25.8053 148.669 25.7643 148.742 25.7188C149.526 25.2904 150.219 24.7617 150.82 24.1328ZM160.268 24.1738C160.295 24.2832 160.231 24.3698 160.076 24.4336C159.93 24.4974 159.771 24.5475 159.598 24.584C159.461 24.6204 159.361 24.6523 159.297 24.6797C158.385 24.9167 157.46 25.0397 156.521 25.0488C156.476 25.0488 156.43 25.0488 156.385 25.0488C156.029 25.0397 155.61 25.0169 155.127 24.9805C154.644 24.944 154.184 24.8574 153.746 24.7207C153.764 25.4134 153.641 26.0879 153.377 26.7441C153.122 27.4004 152.762 27.8971 152.297 28.2344C151.75 28.6263 151.249 28.7357 150.793 28.5625C150.337 28.3893 150.046 27.9746 149.918 27.3184C149.781 26.1152 150.077 25.0169 150.807 24.0234C151.18 23.5404 151.641 23.1621 152.188 22.8887C152.443 22.7884 152.648 22.8249 152.803 22.998C152.885 22.916 152.99 22.9069 153.117 22.9707C153.427 23.3262 153.623 23.7682 153.705 24.2969C154.161 24.4792 154.671 24.5977 155.236 24.6523C155.801 24.6979 156.23 24.7207 156.521 24.7207C157.752 24.7298 158.937 24.5202 160.076 24.0918C160.113 24.0736 160.149 24.0736 160.186 24.0918C160.222 24.11 160.249 24.1374 160.268 24.1738ZM153.145 23.9277C153.117 23.791 153.076 23.6589 153.021 23.5312C153.021 23.6771 153.062 23.8092 153.145 23.9277ZM151.271 28.0156C151.973 27.8516 152.493 27.4186 152.83 26.7168C153.176 26.015 153.318 25.2767 153.254 24.502C152.971 24.347 152.775 24.1374 152.666 23.873C152.156 24.1374 151.745 24.5111 151.436 24.9941C151.135 25.4681 150.939 25.9831 150.848 26.5391C150.848 26.5755 150.843 26.612 150.834 26.6484C150.807 26.9128 150.807 27.1862 150.834 27.4688C150.87 27.7513 151.016 27.9336 151.271 28.0156Z" fill="black"/>
<path d="M85.0859 41.9258C85.888 42.099 86.4076 42.4727 86.6445 43.0469C86.8906 43.612 86.9453 44.2454 86.8086 44.9473C86.681 45.64 86.4531 46.2689 86.125 46.834C85.9427 47.0983 85.7285 47.2168 85.4824 47.1895C85.2454 47.1621 85.0586 47.0482 84.9219 46.8477C84.7943 46.638 84.8079 46.401 84.9629 46.1367C85.1543 45.8542 85.3275 45.5215 85.4824 45.1387C85.6465 44.7467 85.7285 44.3639 85.7285 43.9902C85.7376 43.6165 85.5918 43.3158 85.291 43.0879C85.0814 42.9694 84.849 42.9102 84.5938 42.9102C84.3477 42.901 84.1016 42.9147 83.8555 42.9512C83.4635 43.0059 83.0762 43.0697 82.6934 43.1426C80.3327 43.653 78.0312 44.3548 75.7891 45.248C73.3555 46.2142 70.7441 47.4128 67.9551 48.8438C65.166 50.2656 62.5365 51.8971 60.0664 53.7383C57.6055 55.5703 55.6322 57.5755 54.1465 59.7539C53.7728 60.3555 53.4857 61.0026 53.2852 61.6953C53.0846 62.388 53.0527 63.0625 53.1895 63.7188C53.3262 64.3659 53.7135 64.931 54.3516 65.4141C54.9805 65.8607 55.6595 66.2253 56.3887 66.5078C57.1178 66.7812 57.8607 67.0273 58.6172 67.2461C59.3919 67.4648 60.153 67.7155 60.9004 67.998C61.0007 68.0436 61.1009 68.0846 61.2012 68.1211C63.7168 65.9974 66.4056 64.2383 69.2676 62.8438C69.8327 62.5885 70.4206 62.3698 71.0312 62.1875C71.1953 62.1419 71.3229 62.1738 71.4141 62.2832C71.5052 62.3835 71.5371 62.502 71.5098 62.6387C71.4915 62.7754 71.4004 62.8711 71.2363 62.9258C70.0697 63.2357 68.9486 63.6686 67.873 64.2246C66.8066 64.7806 65.7767 65.3958 64.7832 66.0703C63.7441 66.7995 62.7233 67.5651 61.7207 68.3672C62.2038 68.5951 62.6322 68.8958 63.0059 69.2695C63.571 69.8802 63.9264 70.5866 64.0723 71.3887C64.2272 72.1908 64.1953 72.9837 63.9766 73.7676C63.7305 74.6335 63.3385 75.4219 62.8008 76.1328C62.2721 76.8529 61.6797 77.5091 61.0234 78.1016C59.9297 79.0768 58.7539 79.9427 57.4961 80.6992C56.2383 81.4557 54.903 82.0482 53.4902 82.4766C53.0254 82.6042 52.5013 82.6725 51.918 82.6816C51.3438 82.6908 50.8971 82.4902 50.5781 82.0801C50.332 81.5514 50.3822 80.8906 50.7285 80.0977C51.0749 79.3138 51.526 78.5299 52.082 77.7461C52.6471 76.9714 53.1348 76.3333 53.5449 75.832C53.6087 75.75 53.668 75.6725 53.7227 75.5996C55.5729 73.4212 57.5964 71.334 59.793 69.3379C59.3737 69.1921 58.9408 69.0462 58.4941 68.9004C57.2363 68.5085 56.0332 68.0391 54.8848 67.4922C53.7363 66.9453 52.8613 66.1979 52.2598 65.25C51.6673 64.3021 51.5716 63.0352 51.9727 61.4492C52.5286 59.7266 53.6497 58.0312 55.3359 56.3633C57.0312 54.6862 59.0638 53.0911 61.4336 51.5781C63.8034 50.056 66.2871 48.666 68.8848 47.4082C71.4915 46.1504 73.9844 45.0794 76.3633 44.1953C78.7422 43.3021 80.7839 42.6504 82.4883 42.2402C82.6341 42.2129 82.7799 42.181 82.9258 42.1445C83.6276 41.944 84.3477 41.8711 85.0859 41.9258ZM61.8027 70.418C61.3835 70.0352 60.8867 69.7389 60.3125 69.5293C57.0859 72.2546 54.3197 75.3672 52.0137 78.8672C52.0046 78.8945 51.9909 78.9219 51.9727 78.9492C51.8268 79.1862 51.6628 79.4915 51.4805 79.8652C51.2982 80.2389 51.166 80.6035 51.084 80.959C51.002 81.3145 51.043 81.597 51.207 81.8066C51.7812 82.0254 52.4785 81.9798 53.2988 81.6699C54.1191 81.36 54.9622 80.9134 55.8281 80.3301C56.7031 79.7467 57.5052 79.1406 58.2344 78.5117C58.9727 77.8919 59.5378 77.3724 59.9297 76.9531C60.513 76.3698 61.0417 75.7409 61.5156 75.0664C61.9987 74.3919 62.3132 73.6491 62.459 72.8379C62.5228 72.4095 62.5046 71.9766 62.4043 71.5391C62.304 71.1107 62.1035 70.737 61.8027 70.418ZM81.4082 58.1406C81.627 58.2956 81.7135 58.4824 81.668 58.7012C81.6315 58.9199 81.5176 59.0885 81.3262 59.207C81.1439 59.3164 80.9388 59.2891 80.7109 59.125C80.4831 58.7878 80.1641 58.569 79.7539 58.4688C79.3529 58.3594 78.9382 58.2956 78.5098 58.2773C78.3457 58.2682 78.1862 58.2546 78.0312 58.2363C76.5456 58.1816 75.0553 58.2181 73.5605 58.3457C73.0592 59.8132 72.526 61.276 71.9609 62.7344C71.8789 62.9622 71.7923 63.1947 71.7012 63.4316C71.5918 64.6712 71.3685 65.7923 71.0312 66.7949C70.9674 66.9863 70.8991 67.1777 70.8262 67.3691C70.6712 67.834 70.4889 68.2852 70.2793 68.7227C70.0605 69.1693 69.7689 69.5612 69.4043 69.8984C69.2493 69.9805 69.1126 69.9759 68.9941 69.8848C68.8757 69.7936 68.8346 69.666 68.8711 69.502C69.5547 67.0228 70.3385 64.5618 71.2227 62.1191C71.2773 61.9642 71.332 61.8092 71.3867 61.6543C71.2956 61.0618 71.1042 60.5423 70.8125 60.0957C70.5208 59.64 70.0833 59.3255 69.5 59.1523C69.3997 59.1068 69.263 59.084 69.0898 59.084C68.9622 59.084 68.8483 59.0749 68.748 59.0566C68.6478 59.0293 68.5977 58.9655 68.5977 58.8652C68.6068 58.8288 68.625 58.7969 68.6523 58.7695C68.6797 58.7331 68.7116 58.7103 68.748 58.7012C69.7871 58.4551 70.8262 58.2546 71.8652 58.0996C72.0931 58.0723 72.3438 58.0404 72.6172 58.0039C72.6172 57.9948 72.6217 57.9811 72.6309 57.9629C72.64 57.9447 72.6445 57.9264 72.6445 57.9082C72.7174 57.6895 72.7858 57.4707 72.8496 57.252C73.2051 56.222 73.4694 55.1829 73.6426 54.1348C73.6699 53.8978 73.7747 53.7428 73.957 53.6699C74.1484 53.5879 74.3262 53.5879 74.4902 53.6699C74.6634 53.7428 74.7454 53.9023 74.7363 54.1484C74.4629 55.3971 74.1257 56.6367 73.7246 57.8672C74.6178 57.7396 75.5566 57.6393 76.541 57.5664C77.5345 57.4844 78.4642 57.4798 79.3301 57.5527C80.196 57.6257 80.8887 57.8216 81.4082 58.1406ZM69.9785 68.3672C70.334 67.8294 70.6211 67.2096 70.8398 66.5078C71.0495 65.7969 71.2044 65.1224 71.3047 64.4844C70.8216 65.7695 70.3796 67.0638 69.9785 68.3672ZM71.5508 61.1621C71.8698 60.2598 72.1751 59.3574 72.4668 58.4551C71.5371 58.5645 70.6074 58.7057 69.6777 58.8789C70.1973 59.0703 70.612 59.3665 70.9219 59.7676C71.2227 60.1595 71.4323 60.6243 71.5508 61.1621ZM76.6367 62.8301C76.6367 62.8392 76.6322 62.8438 76.623 62.8438C76.6322 62.8438 76.6367 62.8392 76.6367 62.8301ZM86.2344 62.1191C86.5169 62.0371 86.6354 62.069 86.5898 62.2148C86.5443 62.3516 86.3984 62.5566 86.1523 62.8301C85.9062 63.0944 85.6237 63.3724 85.3047 63.6641C84.9857 63.9466 84.6986 64.1973 84.4434 64.416C84.1973 64.6257 84.0469 64.7487 83.9922 64.7852C83.7826 64.9401 83.5684 65.1042 83.3496 65.2773C82.8027 65.7148 82.2331 66.1159 81.6406 66.4805C81.0482 66.8359 80.4056 67.0547 79.7129 67.1367C79.1934 67.0729 78.8424 66.8587 78.6602 66.4941C78.4779 66.1296 78.4004 65.7057 78.4277 65.2227C78.4551 64.7396 78.5234 64.2839 78.6328 63.8555C78.1862 64.4023 77.6849 64.8945 77.1289 65.332C76.582 65.6602 76.1491 65.724 75.8301 65.5234C75.5111 65.3229 75.3105 64.9902 75.2285 64.5254C75.1465 64.0605 75.1875 63.5957 75.3516 63.1309C75.4974 62.5749 75.6797 62.2103 75.8984 62.0371C76.1263 61.8639 76.3314 61.8138 76.5137 61.8867C76.7051 61.9596 76.819 62.0964 76.8555 62.2969C76.901 62.4883 76.8099 62.6797 76.582 62.8711C76.5911 62.8711 76.6003 62.8711 76.6094 62.8711C76.6185 62.862 76.623 62.8529 76.623 62.8438C76.6139 62.8529 76.6048 62.8665 76.5957 62.8848C76.4225 63.1764 76.2721 63.5137 76.1445 63.8965C76.026 64.2702 76.0352 64.6165 76.1719 64.9355C76.3815 65.0267 76.623 64.9583 76.8965 64.7305C77.1699 64.4935 77.4388 64.1973 77.7031 63.8418C77.9674 63.4772 78.1953 63.1491 78.3867 62.8574C78.4961 62.6934 78.5827 62.5658 78.6465 62.4746C78.7194 62.3743 78.7923 62.2604 78.8652 62.1328C79.0202 61.832 79.2207 61.5951 79.4668 61.4219C79.6309 61.3216 79.7858 61.3079 79.9316 61.3809C80.0866 61.4447 80.1914 61.5586 80.2461 61.7227C80.3008 61.8776 80.2689 62.028 80.1504 62.1738C80.1139 62.2194 80.082 62.2604 80.0547 62.2969C80.0456 62.2969 80.041 62.2969 80.041 62.2969L80.0547 62.3105C80.0456 62.3197 80.0319 62.3333 80.0137 62.3516C80.0046 62.3607 80 62.3698 80 62.3789C79.8724 62.543 79.763 62.7116 79.6719 62.8848C79.2708 63.6413 79.0293 64.4434 78.9473 65.291C78.929 66.2754 79.2389 66.7402 79.877 66.6855C80.5241 66.6309 81.2988 66.2936 82.2012 65.6738C83.1126 65.054 83.9557 64.3887 84.7305 63.6777C85.5052 62.9668 86.0065 62.4473 86.2344 62.1191ZM92.9062 53.6699C93.0065 53.7246 93.0703 53.8021 93.0977 53.9023C93.1341 53.9935 93.1341 54.0938 93.0977 54.2031C91.9857 56.819 91.0241 59.4805 90.2129 62.1875C89.4017 64.8945 88.7044 67.6198 88.1211 70.3633C88.0846 70.5182 88.0026 70.6367 87.875 70.7188C87.7565 70.8099 87.6198 70.8509 87.4648 70.8418C87.319 70.8145 87.2051 70.7415 87.123 70.623C87.041 70.5046 87.0182 70.3678 87.0547 70.2129C87.8932 66.4759 88.9505 62.7799 90.2266 59.125C89.5794 60.2917 88.9004 61.4355 88.1895 62.5566C87.4876 63.6686 86.7038 64.735 85.8379 65.7559C85.5462 66.084 85.2044 66.3073 84.8125 66.4258C84.4115 66.5352 84.1107 66.362 83.9102 65.9062C83.8099 65.4779 83.8555 65.054 84.0469 64.6348C84.2383 64.2155 84.4661 63.8236 84.7305 63.459C85.1042 62.9486 85.5599 62.4883 86.0977 62.0781C86.6445 61.6589 87.2415 61.4674 87.8887 61.5039C88.0072 61.5221 88.0983 61.5632 88.1621 61.627C88.9733 60.2415 89.7435 58.8288 90.4727 57.3887C90.8828 56.5957 91.2975 55.8118 91.7168 55.0371C91.7168 55.0371 91.7487 54.9779 91.8125 54.8594C91.8763 54.7409 91.9447 54.6087 92.0176 54.4629C92.0996 54.3079 92.168 54.1758 92.2227 54.0664C92.2865 53.9479 92.3184 53.8887 92.3184 53.8887C92.3822 53.7793 92.4688 53.7064 92.5781 53.6699C92.6966 53.6243 92.806 53.6243 92.9062 53.6699ZM85.7969 65.0723C86.4349 64.2793 87.0228 63.4544 87.5605 62.5977C86.9772 62.7344 86.4577 63.0443 86.002 63.5273C85.5371 64.0013 85.1634 64.498 84.8809 65.0176C84.6895 65.5007 84.6348 65.7832 84.7168 65.8652C84.7988 65.9382 84.9492 65.888 85.168 65.7148C85.3867 65.5417 85.5964 65.3275 85.7969 65.0723ZM100.836 62.1191C101.064 62.0918 101.141 62.1419 101.068 62.2695C101.005 62.388 100.845 62.5521 100.59 62.7617C100.335 62.9714 100.052 63.1901 99.7422 63.418C99.4414 63.6367 99.168 63.8281 98.9219 63.9922C98.6758 64.1471 98.5254 64.2383 98.4707 64.2656C97.7871 64.694 97.0853 65.0951 96.3652 65.4688C95.6452 65.8333 94.8887 66.1204 94.0957 66.3301C93.4486 66.5215 93.002 66.4121 92.7559 66.002C92.5098 65.5918 92.4368 65.0996 92.5371 64.5254C92.6374 63.623 92.9518 62.8027 93.4805 62.0645C93.6354 61.8913 93.804 61.832 93.9863 61.8867C94.1777 61.9323 94.319 62.0417 94.4102 62.2148C94.5013 62.3789 94.4785 62.5566 94.3418 62.748C94.041 63.1764 93.7904 63.6549 93.5898 64.1836C93.3893 64.7031 93.3255 65.2227 93.3984 65.7422C93.5898 65.9245 93.8542 65.9837 94.1914 65.9199C94.5286 65.8561 94.8477 65.7604 95.1484 65.6328C95.2943 65.5781 95.4219 65.5371 95.5312 65.5098C96.5065 65.1087 97.4453 64.6302 98.3477 64.0742C99.2591 63.5182 100.089 62.8665 100.836 62.1191ZM94.3418 60.7656C94.0046 60.7201 93.8268 60.5697 93.8086 60.3145C93.7995 60.0592 93.8906 59.8359 94.082 59.6445C94.2826 59.4531 94.5195 59.4395 94.793 59.6035C94.957 59.722 95.0299 59.8724 95.0117 60.0547C94.9935 60.2279 94.9206 60.3874 94.793 60.5332C94.6654 60.679 94.515 60.7565 94.3418 60.7656ZM110.242 62.1738C110.27 62.2832 110.206 62.3698 110.051 62.4336C109.905 62.4974 109.745 62.5475 109.572 62.584C109.436 62.6204 109.335 62.6523 109.271 62.6797C108.36 62.9167 107.435 63.0397 106.496 63.0488C106.451 63.0488 106.405 63.0488 106.359 63.0488C106.004 63.0397 105.585 63.0169 105.102 62.9805C104.618 62.944 104.158 62.8574 103.721 62.7207C103.739 63.4134 103.616 64.0879 103.352 64.7441C103.096 65.4004 102.736 65.8971 102.271 66.2344C101.725 66.6263 101.223 66.7357 100.768 66.5625C100.312 66.3893 100.02 65.9746 99.8926 65.3184C99.7559 64.1152 100.052 63.0169 100.781 62.0234C101.155 61.5404 101.615 61.1621 102.162 60.8887C102.417 60.7884 102.622 60.8249 102.777 60.998C102.859 60.916 102.964 60.9069 103.092 60.9707C103.402 61.3262 103.598 61.7682 103.68 62.2969C104.135 62.4792 104.646 62.5977 105.211 62.6523C105.776 62.6979 106.204 62.7207 106.496 62.7207C107.727 62.7298 108.911 62.5202 110.051 62.0918C110.087 62.0736 110.124 62.0736 110.16 62.0918C110.197 62.11 110.224 62.1374 110.242 62.1738ZM103.119 61.9277C103.092 61.791 103.051 61.6589 102.996 61.5312C102.996 61.6771 103.037 61.8092 103.119 61.9277ZM101.246 66.0156C101.948 65.8516 102.467 65.4186 102.805 64.7168C103.151 64.015 103.292 63.2767 103.229 62.502C102.946 62.347 102.75 62.1374 102.641 61.873C102.13 62.1374 101.72 62.5111 101.41 62.9941C101.109 63.4681 100.913 63.9831 100.822 64.5391C100.822 64.5755 100.818 64.612 100.809 64.6484C100.781 64.9128 100.781 65.1862 100.809 65.4688C100.845 65.7513 100.991 65.9336 101.246 66.0156Z" fill="black"/>
</svg>
