<svg width="36" height="36" viewBox="0 0 36 36" fill="none" xmlns="http://www.w3.org/2000/svg">
<path d="M22.8762 30.3284C19.8733 32.328 15.9613 32.328 12.9584 30.3284C12.2584 29.8626 11.9463 28.9943 12.1887 28.1927L13.8281 22.7383H22.0095L23.6489 28.1927C23.8913 28.9943 23.5761 29.8626 22.8762 30.3284Z" fill="black"/>
<path d="M23.373 26.187C21.5912 28.2804 19.6458 29.2484 17.7277 29.2484C15.8096 29.2484 14.2461 28.2773 12.4643 26.187C8.16452 21.132 4.29802 4.74475 17.7277 4.74475C31.1575 4.74475 27.6728 21.132 23.373 26.187Z" fill="black"/>
<path fill-rule="evenodd" clip-rule="evenodd" d="M18.9961 14.9876L20.2255 13.844C20.736 13.3711 21.4247 13.1053 22.1376 13.1053C23.9953 13.1053 25.5027 13.8008 25.5027 16.2332C25.5027 17.9732 23.9953 19.3641 22.1376 19.3641C21.4006 19.3641 20.6726 19.2033 20.0141 18.8974L18.9568 18.4059C18.3678 18.1309 17.6881 18.1309 17.0991 18.4059L16.0418 18.8974C15.3833 19.2033 14.6553 19.3641 13.9183 19.3641C12.0606 19.3641 10.5532 17.9732 10.5532 16.2332C10.5532 13.8008 12.0606 13.1053 13.9183 13.1053C14.6372 13.1053 15.3259 13.3711 15.8334 13.844L17.0628 14.9876C17.5945 15.4821 18.4644 15.4821 18.9961 14.9876ZM20.6804 24.0982C20.6804 25.2061 19.4209 26.1042 17.8673 26.1042C16.3137 26.1042 15.0542 25.2061 15.0542 24.0982C15.0542 22.9904 16.3137 22.0922 17.8673 22.0922C19.4209 22.0922 20.6804 22.9904 20.6804 24.0982Z" fill="white"/>
<path fill-rule="evenodd" clip-rule="evenodd" d="M6.16029 6.95381C9.1046 3.79307 13.297 1.8178 17.948 1.8178C26.8539 1.8178 34.0783 9.06021 34.0783 18C34.0783 22.6393 32.1327 26.8216 29.0161 29.7717L6.16029 6.95381ZM4.99308 8.35716C2.99826 11.0499 1.8178 14.3863 1.8178 18C1.8178 26.9398 9.04216 34.1822 17.948 34.1822C21.5773 34.1822 24.9272 32.9795 27.6229 30.9494L4.99308 8.35716ZM17.948 0C8.03301 0 0 8.06148 0 18C0 27.9385 8.03301 36 17.948 36C27.8631 36 35.8961 27.9385 35.8961 18C35.8961 8.06148 27.8631 0 17.948 0Z" fill="#EE2625"/>
</svg>
