<svg width="1249" height="1000" fill="none" xmlns="http://www.w3.org/2000/svg"><g filter="url(#filter0_f)"><path d="M1066.49 138.453l27.04-2.866 2.86 27.037-27.03 2.865-2.87-27.036z" stroke="#fff" stroke-width="2"/></g><path d="M386.266 164.736l31.498-31.497 31.497 31.497-31.497 31.497-31.498-31.497z" stroke="#fff" stroke-width="2"/><g filter="url(#filter1_f)"><path d="M503.447 132.374l12.13-12.131 12.131 12.131-12.131 12.131-12.13-12.131z" stroke="#fff" stroke-width="2"/></g><g filter="url(#filter2_f)"><path d="M140.451 304.097h27.188v27.188h-27.188v-27.188z" stroke="#fff" stroke-width="2"/></g><g filter="url(#filter3_f)"><path d="M338.819 481.319h27.188v27.188h-27.188v-27.188z" stroke="#fff" stroke-width="2"/></g><g filter="url(#filter4_f)"><path d="M896.127 119.119l51.595-35.15 35.15 51.595-51.595 35.149-35.15-51.594z" stroke="#fff" stroke-width="2"/></g><g filter="url(#filter5_f)"><path d="M1051.55 438.326l23.04-23.045 23.05 23.045-23.05 23.045-23.04-23.045z" stroke="#fff" stroke-width="2"/></g><path d="M927.676 487.708l73.364 37.414-37.412 73.364-73.364-37.413 37.412-73.365z" stroke="#fff" stroke-width="2"/><path d="M339.978-54.27c197.911-197.907 518.781-197.907 716.692 0 197.9 197.906 197.9 518.777 0 716.683-197.911 197.906-518.781 197.906-716.692 0-197.905-197.906-197.905-518.777 0-716.684z" stroke="#fff"/><path opacity=".2" d="M637.379 146.007c17.518 0 31.719-13.75 31.719-30.712s-14.201-30.712-31.719-30.712-31.719 13.75-31.719 30.712 14.201 30.712 31.719 30.712z" fill="url(#paint0_linear)"/><path opacity=".2" d="M708.872 95.66c9.176 0 16.614-7.439 16.614-16.615 0-9.176-7.438-16.614-16.614-16.614-9.177 0-16.615 7.438-16.615 16.614 0 9.176 7.438 16.615 16.615 16.615z" fill="url(#paint1_linear)"/><path opacity=".2" d="M1141.86 308.424c23.63 0 42.79-18.709 42.79-41.788 0-23.079-19.16-41.788-42.79-41.788-23.64 0-42.8 18.709-42.8 41.788 0 23.079 19.16 41.788 42.8 41.788z" fill="url(#paint2_linear)"/><path d="M331.064 621.285l55.082 37.555-37.554 55.084-55.085-37.556 37.557-55.083z" fill="#FFDC4E" stroke="#fff" stroke-width="2"/><path d="M336.506 639.41l33.529 22.86-22.86 33.529-33.529-22.86 22.86-33.529z" fill="#FFDC4E" stroke="#fff" stroke-width="2"/><g filter="url(#filter6_f)"><path d="M1132.68 505.793l40.59-40.585 40.58 40.585-40.58 40.585-40.59-40.585z" fill="#FFDC4E"/><path d="M1134.11 505.793l39.16-39.161 39.16 39.161-39.16 39.161-39.16-39.161z" stroke="#fff" stroke-width="2"/></g><path fill-rule="evenodd" clip-rule="evenodd" d="M494.602 781.3c0 4.45-4.39 8.06-9.81 8.06-5.42 0-9.79-3.64-9.79-8.06s4.4-8.07 9.82-8.07 9.78 3.61 9.78 8.07z" fill="#fff"/><path d="M525.482 756.18h-34.68v3.5h34.68v-3.5z" fill="#fff"/><path d="M494.602 746h-4.41v35.9h4.41V746zm31.03 0h-4.41v35.9h4.41V746z" fill="#fff"/><path d="M525.642 746.02h-34.39v3.94h34.39v-3.94z" fill="url(#paint3_linear)"/><path fill-rule="evenodd" clip-rule="evenodd" d="M525.792 780.99c0 4.45-4.4 8.06-9.82 8.06s-9.81-3.61-9.81-8.06c0-4.45 4.39-8.06 9.81-8.06 5.42 0 9.82 3.61 9.82 8.06z" fill="url(#paint4_linear)"/><path d="M249.999 131.129c.057-4.63-1.751-8.844-4.961-11.559-4.205-3.558-10.554-4.446-16.629-2.85-1.312-4.934-2.67-9.885-4.006-14.735 1.086-1.181 2.141-2.3 3.159-3.38 7.236-7.674 12.464-13.219 11.253-22.955-1.045-8.398-4.614-11.285-7.425-12.228-2.703-.907-5.754-.336-8.368 1.567-5.939 4.325-10.399 16.022-6.153 31.484.394 1.437.794 2.89 1.198 4.356-2.497 2.796-5.185 6.007-7.896 9.757-8.226 11.377-7.901 19.745-6.181 24.762 1.742 5.079 5.72 9.232 10.914 11.393 5.154 2.144 10.272 2.996 15.062 2.591.848 4.884 1.409 9.343 1.562 13.14-1.574-.639-3.391-1.006-5.326-1.006-5.978 0-10.842 3.484-10.842 7.767S220.224 177 226.202 177c5.833 0 10.105-3.293 10.723-6.472 1.031-5.298.384-13.149-1.226-22.336a24.893 24.893 0 008.496-4.731 16.407 16.407 0 005.804-12.332zm-23.153-62.383c.526-.383 1.243-.789 1.917-.789.159 0 .316.023.467.073 1.321.444 3.098 2.841 3.757 8.14.96 7.713-3.168 12.09-10.006 19.343l-.278.295-.125-.456c-3.917-14.266.539-23.89 4.268-26.606zm-9.356 73.545c-3.663-1.524-6.606-4.636-7.871-8.325-1.996-5.819-.076-13.009 5.552-20.793a109.384 109.384 0 014.648-5.976c1.049 3.829 2.115 7.751 3.153 11.685a23.472 23.472 0 00-3.919 2.682c-1.145.968-1.145 2.538 0 3.506 1.144.968 2.999.968 4.144 0 .373-.316.759-.615 1.153-.897 1.791 6.994 3.44 13.912 4.708 20.292-3.599.246-7.488-.476-11.568-2.174zm8.713 29.751c-2.654 0-4.982-1.313-4.982-2.809 0-1.497 2.328-2.809 4.982-2.809 2.653 0 4.981 1.312 4.981 2.809s-2.328 2.809-4.981 2.809zm13.849-32.086c-1.645 1.391-3.416 2.465-5.296 3.22-1.36-6.788-3.135-14.134-5.075-21.614 4.185-1.244 8.477-.802 11.213 1.513 4.212 3.563 4.66 12.226-.842 16.881z" fill="#fff" fill-opacity=".6"/><g filter="url(#filter7_f)"><path d="M41.865 215.828h58.444v58.444H41.865v-58.444z" stroke="#fff" stroke-width="2"/></g><g filter="url(#filter8_f)"><path d="M186.327-62.586c241.888-241.885 634.062-241.885 875.943 0 241.89 241.885 241.89 634.059 0 875.943-241.881 241.883-634.055 241.883-875.943 0-241.883-241.884-241.883-634.058 0-875.943z" stroke="#fff"/></g><path d="M1100.61 787.866c-1.66-3.894-6.72-6.347-10.31-7.19-3.94-.918-8.05-.695-11.9-2.332-3.08-1.31-5.22-4.193-6.85-7.753l-1.8-.216 1.28 46.792a8.806 8.806 0 00-4.13-2.666c-6.98-2.493-13.07-1.272-15.65 1.351-4.96 4.999-.53 12.74 5.4 14.749 6.29 2.133 15.38 1.507 16.23-5.674.04-.391.07-.755.09-1.143l-.75-26.742c1.16.587 2.43.913 3.73.953 2.13.348 4.31.335 6.43-.039 1.89-.407 3.73-.986 5.51-1.732a8.281 8.281 0 014.67-.596c1.58.258 3.05.968 4.23 2.046a3.854 3.854 0 011.64 2.103c.34 1.147.46 2.367-.1 2.913 2.04-1.243.47-4.86-.89-6.182a12.728 12.728 0 00-7.76-3.43 43.46 43.46 0 00-6.33.151c-1.55.233-3.13.321-4.7.262-1.56.05-3.1-.399-4.39-1.28a10.635 10.635 0 01-2.18-2.293l-.14-5.192a5.965 5.965 0 002.53 2.84 8.17 8.17 0 005.06.472c2.95-.245 5.88-.663 8.78-1.253 2.78-.463 8.75-.514 10.55 3.178.9 1.87-.31 3.172-.71 4.648a5.076 5.076 0 001.62-1.158 5.13 5.13 0 001.04-1.696c.23-.629.33-1.297.29-1.965a4.963 4.963 0 00-.49-1.926z" fill="#fff" fill-opacity=".6"/><path d="M55.214 674.001c-6.691-.465-12.285 1.865-14.462 4.58-4.17 5.128.605 10.453 6.292 10.792 5.688.34 14.482-2.185 14.587-8.216.023-.309.018-.62-.015-.928l-5.137-37.043a67.186 67.186 0 0011.753-2.145c7.136-1.164 14.103-1.288 21.208-2.058l4.184 29.536a7.148 7.148 0 00-4.056-1.251c-6.691-.465-12.262 1.875-14.462 4.58-4.161 5.105.605 10.452 6.293 10.792 5.687.339 14.481-2.186 14.619-8.229l-.038-.938-4.807-34.87c.792-2.917.906-5.977.332-8.945a80.174 80.174 0 00-15.274 1.363c-2.072.346-23.004 3.551-23.004 3.551a72.084 72.084 0 001.102 8.248c.164.082.333.153.506.214l4.488 32.349a7.342 7.342 0 00-4.109-1.382z" fill="#fff" fill-opacity=".7"/><defs><filter id="filter0_f" x="1057.39" y="126.487" width="48.102" height="48.102" filterUnits="userSpaceOnUse" color-interpolation-filters="sRGB"><feFlood flood-opacity="0" result="BackgroundImageFix"/><feBlend in="SourceGraphic" in2="BackgroundImageFix" result="shape"/><feGaussianBlur stdDeviation="4" result="effect1_foregroundBlur"/></filter><filter id="filter1_f" x="498.032" y="114.829" width="35.09" height="35.09" filterUnits="userSpaceOnUse" color-interpolation-filters="sRGB"><feFlood flood-opacity="0" result="BackgroundImageFix"/><feBlend in="SourceGraphic" in2="BackgroundImageFix" result="shape"/><feGaussianBlur stdDeviation="2" result="effect1_foregroundBlur"/></filter><filter id="filter2_f" x="137.451" y="301.097" width="33.188" height="33.188" filterUnits="userSpaceOnUse" color-interpolation-filters="sRGB"><feFlood flood-opacity="0" result="BackgroundImageFix"/><feBlend in="SourceGraphic" in2="BackgroundImageFix" result="shape"/><feGaussianBlur stdDeviation="1" result="effect1_foregroundBlur"/></filter><filter id="filter3_f" x="331.819" y="474.319" width="41.188" height="41.188" filterUnits="userSpaceOnUse" color-interpolation-filters="sRGB"><feFlood flood-opacity="0" result="BackgroundImageFix"/><feBlend in="SourceGraphic" in2="BackgroundImageFix" result="shape"/><feGaussianBlur stdDeviation="3" result="effect1_foregroundBlur"/></filter><filter id="filter4_f" x="889.737" y="77.579" width="99.524" height="99.524" filterUnits="userSpaceOnUse" color-interpolation-filters="sRGB"><feFlood flood-opacity="0" result="BackgroundImageFix"/><feBlend in="SourceGraphic" in2="BackgroundImageFix" result="shape"/><feGaussianBlur stdDeviation="2.5" result="effect1_foregroundBlur"/></filter><filter id="filter5_f" x="1048.13" y="411.867" width="52.918" height="52.918" filterUnits="userSpaceOnUse" color-interpolation-filters="sRGB"><feFlood flood-opacity="0" result="BackgroundImageFix"/><feBlend in="SourceGraphic" in2="BackgroundImageFix" result="shape"/><feGaussianBlur stdDeviation="1" result="effect1_foregroundBlur"/></filter><filter id="filter6_f" x="1126.68" y="459.208" width="93.17" height="93.17" filterUnits="userSpaceOnUse" color-interpolation-filters="sRGB"><feFlood flood-opacity="0" result="BackgroundImageFix"/><feBlend in="SourceGraphic" in2="BackgroundImageFix" result="shape"/><feGaussianBlur stdDeviation="3" result="effect1_foregroundBlur"/></filter><filter id="filter7_f" x="34.865" y="208.828" width="72.443" height="72.443" filterUnits="userSpaceOnUse" color-interpolation-filters="sRGB"><feFlood flood-opacity="0" result="BackgroundImageFix"/><feBlend in="SourceGraphic" in2="BackgroundImageFix" result="shape"/><feGaussianBlur stdDeviation="3" result="effect1_foregroundBlur"/></filter><filter id="filter8_f" x=".415" y="-248.5" width="1247.77" height="1247.77" filterUnits="userSpaceOnUse" color-interpolation-filters="sRGB"><feFlood flood-opacity="0" result="BackgroundImageFix"/><feBlend in="SourceGraphic" in2="BackgroundImageFix" result="shape"/><feGaussianBlur stdDeviation="2" result="effect1_foregroundBlur"/></filter><linearGradient id="paint0_linear" x1="586.394" y1="74.355" x2="706.273" y2="209.168" gradientUnits="userSpaceOnUse"><stop stop-color="#fff"/><stop offset="1" stop-color="#fff"/></linearGradient><linearGradient id="paint1_linear" x1="682.166" y1="56.897" x2="747.229" y2="127.743" gradientUnits="userSpaceOnUse"><stop stop-color="#fff"/><stop offset="1" stop-color="#fff"/></linearGradient><linearGradient id="paint2_linear" x1="1073.07" y1="210.93" x2="1236.34" y2="392.993" gradientUnits="userSpaceOnUse"><stop stop-color="#fff"/><stop offset="1" stop-color="#fff"/></linearGradient><linearGradient id="paint3_linear" x1="1187.65" y1="3111.09" x2="2370.32" y2="3111.09" gradientUnits="userSpaceOnUse"><stop stop-color="#fff"/><stop offset=".27" stop-color="#FBFBFB"/><stop offset=".54" stop-color="#EFF1F1"/><stop offset=".82" stop-color="#DADFDF"/><stop offset=".86" stop-color="#D6DCDC"/></linearGradient><linearGradient id="paint4_linear" x1="1225.01" y1="11052.8" x2="1521.3" y2="10861" gradientUnits="userSpaceOnUse"><stop stop-color="#E4E8E8"/><stop offset=".25" stop-color="#F1F3F3"/><stop offset=".6" stop-color="#FCFCFC"/><stop offset="1" stop-color="#fff"/></linearGradient></defs></svg>