<svg width="1287" height="1041" fill="none" xmlns="http://www.w3.org/2000/svg"><g filter="url(#filter0_f)"><path d="M1104.49 138.453l27.04-2.866 2.86 27.037-27.03 2.865-2.87-27.036z" stroke="#fff" stroke-width="2"/></g><path d="M424.266 164.736l31.498-31.497 31.497 31.497-31.497 31.497-31.498-31.497z" stroke="#fff" stroke-width="2"/><g filter="url(#filter1_f)"><path d="M541.447 132.374l12.13-12.131 12.131 12.131-12.131 12.131-12.13-12.131z" stroke="#fff" stroke-width="2"/></g><g filter="url(#filter2_f)"><path d="M934.127 119.119l51.595-35.15 35.148 51.595-51.593 35.149-35.15-51.594z" stroke="#fff" stroke-width="2"/></g><g filter="url(#filter3_f)"><path d="M1089.55 438.326l23.04-23.045 23.05 23.045-23.05 23.045-23.04-23.045z" stroke="#fff" stroke-width="2"/></g><path d="M965.676 487.708l73.364 37.414-37.41 73.364-73.366-37.413 37.412-73.365z" stroke="#fff" stroke-width="2"/><path opacity=".2" d="M675.379 146.007c17.518 0 31.719-13.75 31.719-30.712s-14.201-30.712-31.719-30.712-31.719 13.75-31.719 30.712 14.201 30.712 31.719 30.712z" fill="url(#paint0_linear)"/><path opacity=".2" d="M746.872 95.66c9.176 0 16.614-7.439 16.614-16.615 0-9.176-7.438-16.614-16.614-16.614-9.177 0-16.615 7.438-16.615 16.614 0 9.176 7.438 16.615 16.615 16.615z" fill="url(#paint1_linear)"/><path opacity=".2" d="M1179.86 308.424c23.63 0 42.79-18.709 42.79-41.788 0-23.079-19.16-41.788-42.79-41.788-23.64 0-42.8 18.709-42.8 41.788 0 23.079 19.16 41.788 42.8 41.788z" fill="url(#paint2_linear)"/><g filter="url(#filter4_f)"><path d="M191.642-54.27c249.366-249.363 653.662-249.363 903.028 0 249.36 249.361 249.36 653.658 0 903.019-249.366 249.361-653.662 249.361-903.028 0-249.36-249.361-249.36-653.658 0-903.02z" stroke="#fff"/></g><g filter="url(#filter5_f)"><path d="M178.451 304.097h27.188v27.188h-27.188v-27.188z" stroke="#fff" stroke-width="2"/></g><g filter="url(#filter6_f)"><path d="M376.819 481.319h27.188v27.188h-27.188v-27.188z" stroke="#fff" stroke-width="2"/></g><path d="M377.978-54.27c197.911-197.907 518.781-197.907 716.692 0 197.9 197.906 197.9 518.777 0 716.683-197.911 197.906-518.781 197.906-716.692 0-197.905-197.906-197.905-518.777 0-716.684z" stroke="#fff"/><path d="M369.064 621.285l55.082 37.555-37.554 55.084-55.085-37.556 37.557-55.083z" fill="#FFDC4E" stroke="#fff" stroke-width="2"/><path d="M374.506 639.41l33.529 22.86-22.86 33.529-33.529-22.86 22.86-33.529z" fill="#FFDC4E" stroke="#fff" stroke-width="2"/><g filter="url(#filter7_f)"><path d="M1170.68 505.793l40.59-40.585 40.58 40.585-40.58 40.585-40.59-40.585z" fill="#FFDC4E"/><path d="M1172.11 505.793l39.16-39.161 39.16 39.161-39.16 39.161-39.16-39.161z" stroke="#fff" stroke-width="2"/></g><defs><filter id="filter0_f" x="1095.39" y="126.487" width="48.102" height="48.102" filterUnits="userSpaceOnUse" color-interpolation-filters="sRGB"><feFlood flood-opacity="0" result="BackgroundImageFix"/><feBlend in="SourceGraphic" in2="BackgroundImageFix" result="shape"/><feGaussianBlur stdDeviation="4" result="effect1_foregroundBlur"/></filter><filter id="filter1_f" x="536.032" y="114.829" width="35.09" height="35.09" filterUnits="userSpaceOnUse" color-interpolation-filters="sRGB"><feFlood flood-opacity="0" result="BackgroundImageFix"/><feBlend in="SourceGraphic" in2="BackgroundImageFix" result="shape"/><feGaussianBlur stdDeviation="2" result="effect1_foregroundBlur"/></filter><filter id="filter2_f" x="927.737" y="77.579" width="99.524" height="99.524" filterUnits="userSpaceOnUse" color-interpolation-filters="sRGB"><feFlood flood-opacity="0" result="BackgroundImageFix"/><feBlend in="SourceGraphic" in2="BackgroundImageFix" result="shape"/><feGaussianBlur stdDeviation="2.5" result="effect1_foregroundBlur"/></filter><filter id="filter3_f" x="1086.13" y="411.867" width="52.918" height="52.918" filterUnits="userSpaceOnUse" color-interpolation-filters="sRGB"><feFlood flood-opacity="0" result="BackgroundImageFix"/><feBlend in="SourceGraphic" in2="BackgroundImageFix" result="shape"/><feGaussianBlur stdDeviation="1" result="effect1_foregroundBlur"/></filter><filter id="filter4_f" x=".122" y="-245.792" width="1286.07" height="1286.06" filterUnits="userSpaceOnUse" color-interpolation-filters="sRGB"><feFlood flood-opacity="0" result="BackgroundImageFix"/><feBlend in="SourceGraphic" in2="BackgroundImageFix" result="shape"/><feGaussianBlur stdDeviation="2" result="effect1_foregroundBlur"/></filter><filter id="filter5_f" x="175.451" y="301.097" width="33.188" height="33.188" filterUnits="userSpaceOnUse" color-interpolation-filters="sRGB"><feFlood flood-opacity="0" result="BackgroundImageFix"/><feBlend in="SourceGraphic" in2="BackgroundImageFix" result="shape"/><feGaussianBlur stdDeviation="1" result="effect1_foregroundBlur"/></filter><filter id="filter6_f" x="369.819" y="474.319" width="41.188" height="41.188" filterUnits="userSpaceOnUse" color-interpolation-filters="sRGB"><feFlood flood-opacity="0" result="BackgroundImageFix"/><feBlend in="SourceGraphic" in2="BackgroundImageFix" result="shape"/><feGaussianBlur stdDeviation="3" result="effect1_foregroundBlur"/></filter><filter id="filter7_f" x="1164.68" y="459.208" width="93.17" height="93.17" filterUnits="userSpaceOnUse" color-interpolation-filters="sRGB"><feFlood flood-opacity="0" result="BackgroundImageFix"/><feBlend in="SourceGraphic" in2="BackgroundImageFix" result="shape"/><feGaussianBlur stdDeviation="3" result="effect1_foregroundBlur"/></filter><linearGradient id="paint0_linear" x1="624.394" y1="74.355" x2="744.273" y2="209.168" gradientUnits="userSpaceOnUse"><stop stop-color="#fff"/><stop offset="1" stop-color="#fff"/></linearGradient><linearGradient id="paint1_linear" x1="720.166" y1="56.897" x2="785.229" y2="127.743" gradientUnits="userSpaceOnUse"><stop stop-color="#fff"/><stop offset="1" stop-color="#fff"/></linearGradient><linearGradient id="paint2_linear" x1="1111.07" y1="210.93" x2="1274.34" y2="392.993" gradientUnits="userSpaceOnUse"><stop stop-color="#fff"/><stop offset="1" stop-color="#fff"/></linearGradient></defs></svg>