<svg width="161" height="90" fill="none" xmlns="http://www.w3.org/2000/svg"><path d="M34.24 3.16a332.957 332.957 0 00-3.513 7.219c-.72 1.504-1.44 3.003-2.16 4.498a78.911 78.911 0 00-2.516 12.264c-.51 4.138-.688 7.706-.533 10.705a45.64 45.64 0 00.369 3.924c.191 1.34.51 2.634.957 3.882a10.745 10.745 0 001.968 3.364c.128.155.16.31.096.465a.493.493 0 01-.314.328c-.155.063-.315.022-.479-.123a8.995 8.995 0 01-.998-1.286c-1.24-2.132-2.032-4.821-2.379-8.066-.346-3.236-.346-6.718 0-10.445a82.39 82.39 0 011.791-10.951 226.907 226.907 0 01-2.98 5.728 91.373 91.373 0 01-3.254 5.564c-.082.119-.169.242-.26.37-.41.638-.925 1.362-1.545 2.173-.62.812-1.29 1.486-2.01 2.024-.72.538-1.44.725-2.16.56-.346-.136-.574-.45-.683-.943a6.911 6.911 0 01-.15-1.627c.018-.592.054-1.125.109-1.6.018-.227.032-.419.04-.574.22-2.032.493-4.051.821-6.056.191-1.276.396-2.557.615-3.842a160 160 0 00.793-5.031c.246-1.687.415-3.382.506-5.086.01-.11.018-.228.027-.356.019-.21.028-.41.028-.601 0-.192-.032-.329-.096-.41-.73-.301-1.49-.183-2.283.355-.784.538-1.559 1.335-2.324 2.393a31.81 31.81 0 00-2.133 3.404 63.624 63.624 0 00-1.723 3.431 91.135 91.135 0 00-1.08 2.434 152.316 152.316 0 00-5.66 15.887c-.064.173-.178.273-.342.3a.477.477 0 01-.424-.095c-.127-.091-.182-.233-.164-.424l.082-.56c.055-.365.119-.816.192-1.354a58871.845 58871.845 0 01.45-2.967l.083-.547c.264-1.795.506-3.595.725-5.4.218-1.805.382-3.614.492-5.428.1-1.805.073-3.605-.082-5.4 0-.21.073-.356.218-.438a.525.525 0 01.452-.04c.164.054.26.186.287.396.2 2.825.155 5.674-.137 8.545a142.635 142.635 0 01-1.107 8.558c1.367-3.8 2.852-7.551 4.457-11.252a89.492 89.492 0 012.502-5.263 36.673 36.673 0 013.076-4.977c.364-.501.793-.989 1.285-1.463a4.987 4.987 0 011.64-1.053c.593-.227 1.222-.218 1.887.028l.096.068c.064.037.146.114.246.233.1.118.2.296.3.533.101.237.197.547.288.93a7.115 7.115 0 010 2.242 5.458 5.458 0 00-.041.383c-.292 2.47-.67 4.917-1.135 7.341-.045.246-.091.488-.137.725l-.396 2.16a143.54 143.54 0 00-1.299 7.807c-.146.984-.21 1.968-.191 2.953.009.155.027.31.054.465.028.155.073.287.137.396.775.037 1.668-.487 2.68-1.572 1.02-1.076 2.1-2.534 3.24-4.375A87.034 87.034 0 0024 22.465a214.713 214.713 0 003.377-6.809c1.23-4.347 2.63-7.852 4.197-10.513a13.533 13.533 0 011.887-2.53c.1-.1.214-.15.342-.15.127 0 .241.045.342.137.154.173.186.36.095.56zm8.627 20.986c.037-.063.087-.09.15-.082a.21.21 0 01.151.096c.036.046.036.1 0 .164a5.27 5.27 0 01-.916.998 15.86 15.86 0 01-1.08.807 6.76 6.76 0 01-.178.123c-.902.62-1.773 1.098-2.611 1.436-.839.328-1.568.391-2.188.19-.61-.209-1.039-.82-1.285-1.831a31.363 31.363 0 01-1.941 2.584c-.365.364-.739.47-1.121.314-.392-.164-.547-.51-.465-1.039a8.9 8.9 0 012.338-4.32 4.294 4.294 0 011.408-.943c.219-.082.396-.055.533.082a.624.624 0 01.205.505c-.009.192-.123.333-.342.424a4.785 4.785 0 00-1.722 1.477 7.843 7.843 0 00-1.067 2.05 36.098 36.098 0 002.092-3.007.49.49 0 01.397-.246.574.574 0 01.437.15.51.51 0 01.178.438 3.79 3.79 0 00-.15 1.722c.09.584.437.994 1.038 1.23.903-.008 1.814-.264 2.735-.765a18.48 18.48 0 002.46-1.586c.374-.273.689-.597.944-.97zm4.567.575a.473.473 0 00.232.082c.1.009.205.013.315.013.118-.009.218-.004.3.014.091.01.142.05.15.123-.036.11-.14.187-.314.233-.164.036-.342.05-.533.04a1.378 1.378 0 01-.451-.081c-.292-.146-.497-.347-.615-.602a1.94 1.94 0 01-.165-.861 12.96 12.96 0 00-2.392 2.734 21.314 21.314 0 00-1.709 3.213.306.306 0 01-.137.164.26.26 0 01-.232 0 .249.249 0 01-.137-.178.657.657 0 01-.04-.232.795.795 0 00-.028-.219 8.708 8.708 0 011.19-5.018c.127-.182.282-.264.464-.246.182.019.333.1.451.247.119.145.132.319.041.519a8.87 8.87 0 00-.574 1.45 12.653 12.653 0 013.623-4.17c.164-.11.324-.133.479-.069a.579.579 0 01.341.328c.073.155.05.315-.068.479a3.863 3.863 0 00-.465 1.052c-.118.41-.027.739.274.985zm5.236 6.986c.045 0 .082.014.11.041a.13.13 0 01.04.123.13.13 0 01-.054.11.17.17 0 01-.123.054c-.237 0-.474.018-.711.055a54.521 54.521 0 01-4.444 9.023c-.218.255-.41.347-.574.274-.164-.064-.296-.2-.396-.41a1.75 1.75 0 01-.206-.575c-.21-1.148-.081-2.297.383-3.445a11.407 11.407 0 011.846-3.117 6.64 6.64 0 012.324-1.75c1.057-2.525 1.8-4.945 2.229-7.26a57.92 57.92 0 01-2.133 2.912 1.403 1.403 0 01-.15.178 1.41 1.41 0 01-.547.492c-.611.018-.957-.255-1.04-.82-.081-.574-.013-1.208.206-1.9.21-.693.45-1.213.724-1.56.21-.31.438-.455.684-.437.246.018.405.128.478.328.082.201-.013.429-.287.684-.2.155-.392.424-.574.807-.182.383-.31.779-.383 1.19-.082.4-.064.71.055.929.273-.301.588-.675.943-1.121.356-.447.675-.87.957-1.272a9.96 9.96 0 01.438-.601c.182-.237.35-.479.506-.725.164-.255.269-.506.314-.752a.427.427 0 01.192-.314c.51-.338.779-.2.806.41.027.61-.077 1.426-.314 2.447a34.924 34.924 0 01-.766 2.858c-.273.884-.456 1.43-.547 1.64a70.6 70.6 0 01-.588 1.545c.2-.027.401-.041.602-.041zm-5.783 8.353c1.34-2.242 2.611-4.762 3.814-7.56a6.872 6.872 0 00-2.775 2.79 9.187 9.187 0 00-1.08 2.938 8.366 8.366 0 00-.096.93c-.018.356.027.657.137.902zm17.595-15.94c.228-.028.306.022.233.15-.064.118-.224.282-.479.492-.255.21-.537.428-.847.656-.301.219-.575.41-.82.574a8.34 8.34 0 01-.452.274 29.65 29.65 0 01-2.105 1.203c-.72.364-1.477.651-2.27.861-.647.192-1.094.082-1.34-.328-.246-.41-.319-.902-.218-1.477.1-.902.414-1.722.943-2.46.155-.174.323-.233.506-.178a.62.62 0 01.424.328c.09.164.068.342-.069.533a6.49 6.49 0 00-.752 1.436 3.08 3.08 0 00-.191 1.558c.191.182.456.242.793.178s.656-.16.957-.287c.146-.055.273-.096.383-.123.975-.401 1.914-.88 2.816-1.436a13.3 13.3 0 002.488-1.955zm-6.494-1.354c-.337-.046-.515-.196-.533-.451a.871.871 0 01.273-.67c.201-.192.438-.206.712-.041.163.118.236.268.218.45a.852.852 0 01-.218.48.63.63 0 01-.452.232zm15.996 1.38c.037-.063.087-.09.15-.082a.21.21 0 01.151.096c.037.046.037.1 0 .164a5.27 5.27 0 01-.916.998c-.346.283-.706.552-1.08.807a6.76 6.76 0 01-.178.123c-.902.62-1.773 1.098-2.611 1.436-.838.328-1.568.391-2.188.19-.61-.209-1.039-.82-1.285-1.831a31.34 31.34 0 01-1.941 2.584c-.365.364-.738.47-1.121.314-.392-.164-.547-.51-.465-1.039a8.9 8.9 0 012.338-4.32 4.294 4.294 0 011.408-.943c.219-.082.397-.055.533.082a.624.624 0 01.205.505c-.009.192-.123.333-.341.424a4.785 4.785 0 00-1.723 1.477 7.843 7.843 0 00-1.067 2.05 36.098 36.098 0 002.092-3.007.49.49 0 01.397-.246.574.574 0 01.437.15c.128.11.187.255.178.438a3.79 3.79 0 00-.15 1.722c.09.584.437.994 1.039 1.23.902-.008 1.813-.264 2.734-.765a18.48 18.48 0 002.461-1.586c.374-.273.688-.597.943-.97zm41.891-18.32c1.759.52 3.076 1.317 3.951 2.393a6.932 6.932 0 011.572 3.691c.174 1.386.073 2.821-.3 4.307a17.675 17.675 0 01-1.682 4.238c-1.103 2.014-2.538 3.892-4.307 5.633a27.663 27.663 0 01-5.947 4.43 22.486 22.486 0 01-6.85 2.502c-2.37.446-4.716.382-7.04-.192a395.127 395.127 0 01-3.282 10.104c-.282.82-.56 1.645-.834 2.474a.672.672 0 01-.342.397.643.643 0 01-.52.027.661.661 0 01-.423-.37.706.706 0 01.014-.56 78.877 78.877 0 003.185-8.093 172.39 172.39 0 001.34-4.225 15.667 15.667 0 01-1.955-.793c-2.443-1.249-4.348-3.067-5.715-5.455a15.144 15.144 0 01-1.709-4.963c-.036-.3.041-.52.233-.656a.716.716 0 01.629-.137c.237.055.396.228.478.52a11.306 11.306 0 00.479 3.691 10.507 10.507 0 001.64 3.172 10.986 10.986 0 002.694 2.543 12.956 12.956 0 003.363 1.613 110.16 110.16 0 002.351-9.297c.256-1.248.474-2.506.657-3.773a31.48 31.48 0 00.314-3.815c.028-.3.15-.5.37-.601a.723.723 0 01.655.014c.22.109.333.323.342.642a45.296 45.296 0 01-.875 5.852 129.404 129.404 0 01-2.94 11.224c.22.055.443.105.67.15 2.444.42 4.9.265 7.37-.464 2.47-.73 4.799-1.878 6.986-3.445a26.694 26.694 0 005.701-5.483c1.605-2.087 2.758-4.275 3.459-6.562.675-2.361.752-4.289.233-5.784-.511-1.494-1.44-2.615-2.789-3.363-1.349-.747-2.935-1.18-4.758-1.299-1.823-.118-3.701.014-5.633.397a32.748 32.748 0 00-6.972 2.174 53.904 53.904 0 00-7.985 4.375 42.714 42.714 0 00-7 5.796c-.811.839-1.6 1.791-2.365 2.858a17.405 17.405 0 00-1.9 3.377 9.529 9.529 0 00-.78 3.596c-.018 1.212.324 2.383 1.026 3.513a4.48 4.48 0 002.05 1.723c.848.364 1.737.47 2.666.314.301-.027.515.06.643.26a.74.74 0 01.11.643c-.065.227-.242.378-.534.45-1.86.229-3.395-.127-4.607-1.066-1.203-.93-2.015-2.178-2.434-3.746-.41-1.558-.36-3.162.15-4.812.72-2.197 1.869-4.243 3.446-6.139a33.015 33.015 0 015.36-5.154c1.995-1.54 3.978-2.867 5.947-3.979a44.977 44.977 0 019.46-3.869 40.311 40.311 0 016.426-1.367 17.595 17.595 0 016.508.37zm13.822 18.293c.228-.027.306.023.233.15-.064.119-.224.283-.479.493a20.453 20.453 0 01-1.668 1.23 8.202 8.202 0 01-.451.274c-.684.428-1.385.83-2.105 1.203-.72.364-1.477.651-2.27.861-.647.192-1.094.082-1.34-.328-.246-.41-.319-.902-.219-1.477a5.138 5.138 0 01.944-2.46c.155-.174.323-.233.506-.178a.62.62 0 01.423.328c.092.164.069.342-.068.533a6.502 6.502 0 00-.752 1.436c-.2.52-.264 1.039-.191 1.558.191.182.455.242.793.178a4.67 4.67 0 00.957-.287c.146-.055.273-.096.383-.123a19.49 19.49 0 002.816-1.436 13.3 13.3 0 002.488-1.955zm-6.494-1.353c-.337-.046-.515-.196-.533-.451a.873.873 0 01.273-.67c.201-.192.438-.206.711-.041.164.118.237.268.219.45a.849.849 0 01-.219.48.628.628 0 01-.451.232zm15.996 1.38c.037-.063.087-.09.151-.082a.21.21 0 01.15.096c.036.046.036.1 0 .164a5.27 5.27 0 01-.916.998c-.346.283-.706.552-1.08.807a6.589 6.589 0 01-.178.123c-.902.62-1.773 1.098-2.611 1.436-.839.328-1.568.391-2.188.19-.61-.209-1.039-.82-1.285-1.831a31.38 31.38 0 01-1.941 2.584c-.365.364-.739.47-1.121.314-.392-.164-.547-.51-.465-1.039a8.902 8.902 0 012.338-4.32 4.295 4.295 0 011.408-.943c.219-.082.396-.055.533.082a.624.624 0 01.205.505c-.009.192-.123.333-.342.424a4.788 4.788 0 00-1.722 1.477 7.86 7.86 0 00-1.067 2.05 35.934 35.934 0 002.092-3.007.49.49 0 01.397-.246.572.572 0 01.437.15.51.51 0 01.178.438 3.795 3.795 0 00-.151 1.722c.092.584.438.994 1.04 1.23.902-.008 1.813-.264 2.734-.765a18.52 18.52 0 002.461-1.586c.374-.273.688-.597.943-.97zm11.621-.013c.046-.055.096-.073.151-.055.054.01.095.037.123.082.027.046.023.096-.014.15-.091.11-.187.206-.287.288a25.29 25.29 0 01-2.147 1.449c-.865.538-1.75.92-2.652 1.148-.893.22-1.659.069-2.297-.45-.237-.247-.396-.639-.478-1.177a5.769 5.769 0 010-1.586c-.866.657-1.7 1.409-2.502 2.256-.793.839-1.418 1.696-1.873 2.57a.504.504 0 01-.424.192.58.58 0 01-.41-.191c-.11-.128-.146-.283-.11-.465.164-.739.37-1.472.616-2.201.091-.292.177-.584.259-.875v-.014c.101-.32.187-.643.26-.97.064-.229.192-.36.383-.397a.592.592 0 01.52.11c.154.108.209.282.164.519a26.76 26.76 0 01-.547 1.968c-.055.155-.105.306-.151.451a47.942 47.942 0 001.819-1.777 36.1 36.1 0 012.502-2.379c.109-.09.209-.105.3-.04a.672.672 0 01.246.314c.101.246.124.506.069.779a4.612 4.612 0 01-.219.82c-.109.31-.191.62-.246.93-.046.3.009.592.164.875.401.374.871.542 1.408.506a4.937 4.937 0 001.641-.41 13.446 13.446 0 001.449-.711c.064-.037.132-.078.205-.123a8.474 8.474 0 002.078-1.586zm9.448.04c.027.11-.037.197-.192.26a2.456 2.456 0 01-.478.151 2.386 2.386 0 00-.301.096 11.43 11.43 0 01-2.776.369h-.136a25.82 25.82 0 01-1.258-.069 6.182 6.182 0 01-1.381-.26 5.019 5.019 0 01-.369 2.024c-.255.656-.615 1.153-1.08 1.49-.547.392-1.048.502-1.504.328-.456-.173-.747-.587-.875-1.244-.137-1.203.159-2.301.889-3.295a3.96 3.96 0 011.381-1.134c.255-.1.46-.064.615.109.082-.082.187-.091.314-.027.31.355.506.797.588 1.326.456.182.966.3 1.531.355.565.046.994.069 1.285.069a9.776 9.776 0 003.555-.63.118.118 0 01.11 0 .185.185 0 01.082.083zm-7.123-.245a2.027 2.027 0 00-.124-.397c0 .146.041.278.124.397zm-1.874 4.088c.702-.164 1.222-.597 1.559-1.3.346-.701.488-1.44.424-2.214a1.261 1.261 0 01-.588-.629c-.51.264-.921.638-1.23 1.121a4.083 4.083 0 00-.588 1.545.455.455 0 01-.014.11 4.164 4.164 0 000 .82c.036.282.182.465.437.547zm-66.185 13.91c.802.173 1.322.547 1.558 1.12.247.566.301 1.2.165 1.901a5.828 5.828 0 01-.684 1.887c-.182.264-.397.383-.643.355a.756.756 0 01-.56-.341c-.128-.21-.114-.447.04-.711.192-.283.365-.615.52-.998.165-.392.246-.775.246-1.149a1.043 1.043 0 00-.437-.902 1.392 1.392 0 00-.697-.178 4.003 4.003 0 00-.738.041c-.392.055-.78.119-1.163.192a43.413 43.413 0 00-6.904 2.105c-2.433.966-5.045 2.165-7.834 3.596a54.866 54.866 0 00-7.889 4.894c-2.46 1.832-4.434 3.837-5.92 6.016a7.737 7.737 0 00-.86 1.941 4.141 4.141 0 00-.096 2.024c.136.647.524 1.212 1.162 1.695a9.316 9.316 0 002.037 1.094c.729.273 1.472.52 2.228.738.775.219 1.536.47 2.283.752.1.046.2.087.301.123a38.87 38.87 0 018.067-5.277 14.02 14.02 0 011.763-.657c.164-.045.292-.013.383.096a.39.39 0 01.096.356c-.019.136-.11.232-.274.287a16.59 16.59 0 00-3.363 1.299 31.064 31.064 0 00-3.09 1.845 61.219 61.219 0 00-3.062 2.297c.483.228.911.529 1.285.902a4.16 4.16 0 011.066 2.12 5.122 5.122 0 01-.095 2.379 7.107 7.107 0 01-1.176 2.365 13.046 13.046 0 01-1.778 1.969 23.446 23.446 0 01-3.527 2.597 17.716 17.716 0 01-4.006 1.778 6.319 6.319 0 01-1.572.205c-.574.009-1.02-.192-1.34-.602-.246-.529-.196-1.19.15-1.982.347-.784.798-1.568 1.354-2.352a44.715 44.715 0 011.463-1.914l.178-.232a67.562 67.562 0 016.07-6.262 72.6 72.6 0 00-1.299-.438 27.2 27.2 0 01-3.61-1.408c-1.148-.547-2.023-1.294-2.624-2.242-.593-.948-.688-2.215-.287-3.8.556-1.723 1.677-3.419 3.363-5.087 1.695-1.677 3.728-3.272 6.098-4.785a71.136 71.136 0 017.45-4.17 87.09 87.09 0 017.48-3.213c2.378-.893 4.42-1.545 6.124-1.955.146-.027.292-.059.438-.096a6.149 6.149 0 012.16-.218zM61.803 70.418a4.44 4.44 0 00-1.49-.889 43.478 43.478 0 00-8.3 9.338.345.345 0 01-.04.082c-.146.237-.31.543-.492.916a5.133 5.133 0 00-.397 1.094c-.082.355-.041.638.123.848.574.218 1.271.173 2.092-.137.82-.31 1.663-.757 2.53-1.34a24.425 24.425 0 002.405-1.818c.739-.62 1.304-1.14 1.696-1.559a14.244 14.244 0 001.586-1.887 5.432 5.432 0 00.943-2.228 3.474 3.474 0 00-.055-1.299c-.1-.428-.3-.802-.601-1.121zm19.605-12.277c.219.155.305.341.26.56a.708.708 0 01-.342.506c-.182.11-.387.082-.615-.082a1.559 1.559 0 00-.957-.656 5.624 5.624 0 00-1.244-.192 7.736 7.736 0 01-.479-.04 36.658 36.658 0 00-4.47.109 115.35 115.35 0 01-1.6 4.388c-.082.228-.169.46-.26.698-.11 1.24-.332 2.36-.67 3.363a14.46 14.46 0 01-.205.574 11.68 11.68 0 01-.547 1.354c-.218.446-.51.838-.875 1.175-.155.083-.291.078-.41-.013-.118-.091-.16-.219-.123-.383a99.003 99.003 0 012.352-7.383l.164-.465a3.894 3.894 0 00-.575-1.558c-.291-.456-.729-.77-1.312-.944a1.011 1.011 0 00-.41-.068c-.128 0-.242-.01-.342-.027-.1-.028-.15-.092-.15-.192a.203.203 0 01.054-.096.173.173 0 01.096-.068 37.583 37.583 0 013.117-.601c.228-.028.479-.06.752-.096 0-.01.005-.023.014-.041a.121.121 0 00.013-.055c.073-.218.142-.437.206-.656.355-1.03.62-2.07.793-3.117.027-.237.132-.392.314-.465a.608.608 0 01.533 0c.173.073.255.232.246.478a38.704 38.704 0 01-1.011 3.72 41.726 41.726 0 012.816-.302 16.818 16.818 0 012.79-.013c.865.073 1.558.269 2.077.588zm-11.43 10.226a7.278 7.278 0 00.862-1.86c.21-.71.364-1.385.465-2.023a67.21 67.21 0 00-1.327 3.883zm1.573-7.205c.319-.902.624-1.805.916-2.707-.93.11-1.86.25-2.79.424.52.191.935.488 1.245.889.3.392.51.856.629 1.394zm5.086 1.668c0 .01-.005.014-.014.014.01 0 .014-.005.014-.014zm9.597-.71c.283-.083.401-.051.356.095-.046.137-.192.342-.438.615-.246.264-.528.542-.847.834-.32.283-.606.533-.862.752-.246.21-.396.333-.45.37-.21.154-.425.318-.643.491-.547.438-1.117.839-1.71 1.204a4.802 4.802 0 01-1.927.656c-.52-.064-.87-.278-1.053-.643-.182-.364-.26-.788-.232-1.271a7.06 7.06 0 01.205-1.367 9.604 9.604 0 01-1.504 1.476c-.547.328-.98.392-1.299.191-.319-.2-.52-.533-.602-.998a2.71 2.71 0 01.124-1.394c.145-.556.328-.92.546-1.094.228-.173.433-.223.616-.15.191.073.305.21.342.41.045.191-.046.383-.274.574h.027c.01-.009.014-.018.014-.027a.157.157 0 00-.027.04 5.196 5.196 0 00-.452 1.013c-.118.373-.109.72.028 1.039.21.09.451.022.725-.206a5.56 5.56 0 00.806-.888c.264-.365.492-.693.684-.985.11-.164.196-.291.26-.382.072-.1.145-.215.218-.342.155-.301.356-.538.602-.711.164-.1.319-.114.465-.041.155.064.26.178.314.342.055.155.023.305-.096.45a4.811 4.811 0 00-.095.124h-.014l.014.014-.041.04c-.01.01-.014.019-.014.028a3.413 3.413 0 00-.328.506 6.406 6.406 0 00-.725 2.406c-.018.984.292 1.45.93 1.395.647-.055 1.422-.392 2.324-1.012a22.179 22.179 0 002.53-1.996c.774-.711 1.276-1.23 1.503-1.559zm6.672-8.45a.37.37 0 01.192.232.427.427 0 010 .301 76.604 76.604 0 00-2.885 7.984 103.333 103.333 0 00-2.092 8.176.557.557 0 01-.246.356.594.594 0 01-.41.123.515.515 0 01-.342-.219.492.492 0 01-.068-.41 100.09 100.09 0 013.172-11.088 68.027 68.027 0 01-2.038 3.432 28.273 28.273 0 01-2.351 3.199 2.214 2.214 0 01-1.025.67c-.401.11-.702-.064-.903-.52a1.93 1.93 0 01.137-1.271c.191-.42.42-.811.684-1.176.373-.51.829-.97 1.367-1.38.546-.42 1.144-.612 1.79-.575.12.018.21.06.274.123a79.171 79.171 0 002.31-4.238c.41-.793.826-1.577 1.245-2.352l.096-.178c.063-.118.132-.25.205-.396.082-.155.15-.287.205-.397l.095-.177a.468.468 0 01.26-.22.41.41 0 01.328 0zm-7.11 11.402a25.964 25.964 0 001.764-2.474c-.583.136-1.102.446-1.558.93-.465.473-.839.97-1.121 1.49-.192.483-.246.765-.164.847.082.073.232.023.451-.15s.428-.388.629-.643zm15.04-2.953c.228-.027.305.023.232.15-.063.119-.223.283-.478.493-.255.21-.538.428-.848.656-.3.219-.574.41-.82.574a8.34 8.34 0 01-.451.274c-.684.428-1.386.83-2.106 1.203-.72.364-1.476.651-2.27.861-.646.192-1.093.082-1.34-.328-.245-.41-.318-.902-.218-1.477.1-.902.415-1.722.944-2.46.154-.174.323-.233.505-.178a.621.621 0 01.424.328c.091.164.069.342-.068.533a6.448 6.448 0 00-.752 1.436 3.08 3.08 0 00-.192 1.558c.192.182.456.242.793.178a4.66 4.66 0 00.957-.287c.146-.055.274-.096.383-.123a19.5 19.5 0 002.817-1.436 13.29 13.29 0 002.488-1.955zm-6.494-1.353c-.337-.046-.515-.196-.533-.451a.871.871 0 01.273-.67c.2-.192.438-.206.711-.042.164.119.237.27.219.452a.852.852 0 01-.219.478.63.63 0 01-.451.233zm15.9 1.408c.028.11-.036.196-.191.26a2.466 2.466 0 01-.479.15 2.442 2.442 0 00-.301.096 11.42 11.42 0 01-2.775.369h-.137c-.355-.01-.774-.032-1.257-.069a6.161 6.161 0 01-1.381-.26 5.019 5.019 0 01-.369 2.024c-.256.656-.616 1.153-1.081 1.49-.546.392-1.048.502-1.503.329-.456-.174-.748-.588-.875-1.245-.137-1.203.159-2.301.888-3.295a3.97 3.97 0 011.381-1.134c.255-.1.46-.064.615.109.082-.082.187-.091.315-.027.31.355.506.797.588 1.326.455.182.966.3 1.531.355.565.046.993.069 1.285.069a9.81 9.81 0 003.555-.63.116.116 0 01.109 0 .175.175 0 01.082.083zm-7.123-.246a1.959 1.959 0 00-.123-.397.68.68 0 00.123.397zm-1.873 4.088c.702-.164 1.221-.597 1.559-1.3.346-.701.487-1.44.424-2.214a1.261 1.261 0 01-.588-.629 3.167 3.167 0 00-1.231 1.121 4.083 4.083 0 00-.588 1.545.454.454 0 01-.013.11 4.016 4.016 0 000 .82c.036.282.182.465.437.547z" fill="#000"/></svg>