<svg width="146" height="355" fill="none" xmlns="http://www.w3.org/2000/svg"><g clip-path="url(#clip0_125_172)"><g opacity=".8"><path d="M108.999 131s-39.229 13.24-41.607 14.289a50.744 50.744 0 00-22.063 18.596A50.58 50.58 0 0037 191.478V355s39.13-13.24 41.632-14.289a50.79 50.79 0 0022.014-18.538 50.628 50.628 0 008.378-27.501v-59.304L108.999 131z" fill="url(#paint0_linear_125_172)" fill-opacity=".6"/><path d="M108.999 131s-39.229 13.24-41.607 14.289a50.744 50.744 0 00-22.063 18.596A50.58 50.58 0 0037 191.478V355s39.13-13.24 41.632-14.289a50.79 50.79 0 0022.014-18.538 50.628 50.628 0 008.378-27.501v-59.304L108.999 131z" fill="#60AAFB" fill-opacity=".2"/><path d="M38.526 353.955l-1.026.348V191.479a50.08 50.08 0 018.247-27.319 50.237 50.237 0 0121.845-18.413l.002-.001c.57-.251 3.438-1.266 7.466-2.66 4.011-1.388 9.137-3.141 14.189-4.862 5.052-1.72 10.03-3.408 13.744-4.665l4.476-1.514 1.031-.348.024 103.671v59.302a50.121 50.121 0 01-8.295 27.227 50.301 50.301 0 01-21.793 18.355c-1.249.521-11.618 4.081-21.72 7.524a9761.01 9761.01 0 01-18.19 6.179z" stroke="url(#paint1_linear_125_172)" stroke-opacity=".6"/><path d="M38.526 353.955l-1.026.348V191.479a50.08 50.08 0 018.247-27.319 50.237 50.237 0 0121.845-18.413l.002-.001c.57-.251 3.438-1.266 7.466-2.66 4.011-1.388 9.137-3.141 14.189-4.862 5.052-1.72 10.03-3.408 13.744-4.665l4.476-1.514 1.031-.348.024 103.671v59.302a50.121 50.121 0 01-8.295 27.227 50.301 50.301 0 01-21.793 18.355c-1.249.521-11.618 4.081-21.72 7.524a9761.01 9761.01 0 01-18.19 6.179z" stroke="url(#paint2_linear_125_172)"/></g><g opacity=".8"><path d="M30.814 89.501A51.481 51.481 0 008.48 108.354 51.52 51.52 0 000 136.332v87.77s39.749-13.46 42.185-14.502a51.536 51.536 0 0022.326-18.857A51.576 51.576 0 0073 162.77V75S33.225 88.46 30.814 89.501z" fill="url(#paint3_linear_125_172)" fill-opacity=".6"/><path d="M30.814 89.501A51.481 51.481 0 008.48 108.354 51.52 51.52 0 000 136.332v87.77s39.749-13.46 42.185-14.502a51.536 51.536 0 0022.326-18.857A51.576 51.576 0 0073 162.77V75S33.225 88.46 30.814 89.501z" fill="#60AAFB" fill-opacity=".2"/><path d="M71.446 76.054l1.053-.357v87.071a51.077 51.077 0 01-8.405 27.7 51.036 51.036 0 01-22.108 18.674c-1.208.515-11.716 4.127-21.969 7.626a9001.607 9001.607 0 01-18.465 6.28l-1.052.356v-87.07a51.026 51.026 0 018.398-27.706A50.985 50.985 0 0131.013 89.96c1.188-.512 11.698-4.126 21.96-7.627a9270.465 9270.465 0 0118.473-6.279z" stroke="url(#paint4_linear_125_172)" stroke-opacity=".6"/><path d="M71.446 76.054l1.053-.357v87.071a51.077 51.077 0 01-8.405 27.7 51.036 51.036 0 01-22.108 18.674c-1.208.515-11.716 4.127-21.969 7.626a9001.607 9001.607 0 01-18.465 6.28l-1.052.356v-87.07a51.026 51.026 0 018.398-27.706A50.985 50.985 0 0131.013 89.96c1.188-.512 11.698-4.126 21.96-7.627a9270.465 9270.465 0 0118.473-6.279z" stroke="url(#paint5_linear_125_172)"/></g><g opacity=".8"><path d="M129.819 5.547a19.728 19.728 0 00-8.566 7.212A19.666 19.666 0 00118 23.463v33.576s15.246-5.15 16.181-5.548a19.753 19.753 0 008.563-7.214 19.696 19.696 0 003.256-10.7V0s-15.256 5.15-16.181 5.547z" fill="url(#paint6_linear_125_172)" fill-opacity=".6"/><path d="M129.819 5.547a19.728 19.728 0 00-8.566 7.212A19.666 19.666 0 00118 23.463v33.576s15.246-5.15 16.181-5.548a19.753 19.753 0 008.563-7.214 19.696 19.696 0 003.256-10.7V0s-15.256 5.15-16.181 5.547z" fill="#60AAFB" fill-opacity=".2"/><path d="M143.762 1.284L145.5.697v32.877a19.203 19.203 0 01-3.173 10.428 19.254 19.254 0 01-8.344 7.03c-.454.193-4.463 1.568-8.404 2.91a3687.08 3687.08 0 01-5.343 1.813l-1.736.587V23.464a19.172 19.172 0 013.17-10.43 19.232 19.232 0 018.348-7.028c.444-.19 4.454-1.566 8.399-2.908 1.965-.669 3.9-1.325 5.345-1.814z" stroke="url(#paint7_linear_125_172)" stroke-opacity=".6"/><path d="M143.762 1.284L145.5.697v32.877a19.203 19.203 0 01-3.173 10.428 19.254 19.254 0 01-8.344 7.03c-.454.193-4.463 1.568-8.404 2.91a3687.08 3687.08 0 01-5.343 1.813l-1.736.587V23.464a19.172 19.172 0 013.17-10.43 19.232 19.232 0 018.348-7.028c.444-.19 4.454-1.566 8.399-2.908 1.965-.669 3.9-1.325 5.345-1.814z" stroke="url(#paint8_linear_125_172)"/></g></g><defs><linearGradient id="paint0_linear_125_172" x1="73.012" y1="131" x2="157.687" y2="151.22" gradientUnits="userSpaceOnUse"><stop stop-color="#fff" stop-opacity=".2"/><stop offset="1" stop-color="#fff" stop-opacity="0"/></linearGradient><linearGradient id="paint1_linear_125_172" x1="122.836" y1="220.548" x2="98.218" y2="220.799" gradientUnits="userSpaceOnUse"><stop stop-color="#fff"/><stop offset="1" stop-color="#EFEFEF" stop-opacity="0"/></linearGradient><linearGradient id="paint2_linear_125_172" x1="37" y1="131" x2="73.321" y2="137.208" gradientUnits="userSpaceOnUse"><stop stop-color="#fff" stop-opacity=".5"/><stop offset="1" stop-color="#fff" stop-opacity="0"/></linearGradient><linearGradient id="paint3_linear_125_172" x1="36.5" y1="75" x2="116.621" y2="104.133" gradientUnits="userSpaceOnUse"><stop stop-color="#fff" stop-opacity=".2"/><stop offset="1" stop-color="#fff" stop-opacity="0"/></linearGradient><linearGradient id="paint4_linear_125_172" x1="86.998" y1="134.606" x2="62.05" y2="134.994" gradientUnits="userSpaceOnUse"><stop stop-color="#fff"/><stop offset="1" stop-color="#EFEFEF" stop-opacity="0"/></linearGradient><linearGradient id="paint5_linear_125_172" x1="0" y1="75" x2="35.484" y2="84.235" gradientUnits="userSpaceOnUse"><stop stop-color="#fff" stop-opacity=".5"/><stop offset="1" stop-color="#fff" stop-opacity="0"/></linearGradient><linearGradient id="paint6_linear_125_172" x1="132" y1="0" x2="162.712" y2="11.197" gradientUnits="userSpaceOnUse"><stop stop-color="#fff" stop-opacity=".2"/><stop offset="1" stop-color="#fff" stop-opacity="0"/></linearGradient><linearGradient id="paint7_linear_125_172" x1="151.369" y1="22.802" x2="141.8" y2="22.951" gradientUnits="userSpaceOnUse"><stop stop-color="#fff"/><stop offset="1" stop-color="#EFEFEF" stop-opacity="0"/></linearGradient><linearGradient id="paint8_linear_125_172" x1="118" y1="0" x2="131.606" y2="3.55" gradientUnits="userSpaceOnUse"><stop stop-color="#fff" stop-opacity=".5"/><stop offset="1" stop-color="#fff" stop-opacity="0"/></linearGradient><clipPath id="clip0_125_172"><path fill="#fff" d="M0 0h146v355H0z"/></clipPath></defs></svg>