<svg width="1151" height="239" fill="none" xmlns="http://www.w3.org/2000/svg"><path d="M81.233 152.233c0-2.929-.732-5.574-2.197-7.934-1.465-2.442-4.272-4.639-8.423-6.592-4.069-1.953-10.09-3.743-18.066-5.371-6.999-1.546-13.428-3.377-19.287-5.493-5.778-2.197-10.742-4.842-14.893-7.935-4.15-3.092-7.365-6.754-9.643-10.986-2.279-4.232-3.418-9.115-3.418-14.649 0-5.37 1.18-10.457 3.54-15.258 2.36-4.802 5.737-9.034 10.131-12.696 4.395-3.662 9.726-6.55 15.992-8.667 6.347-2.116 13.428-3.174 21.24-3.174 11.068 0 20.548 1.872 28.442 5.616 7.976 3.662 14.08 8.667 18.311 15.014 4.232 6.267 6.348 13.347 6.348 21.24H79.89c0-3.499-.895-6.754-2.685-9.765-1.709-3.092-4.313-5.575-7.812-7.446-3.5-1.953-7.894-2.93-13.184-2.93-5.046 0-9.237.814-12.573 2.441-3.256 1.547-5.697 3.581-7.325 6.104-1.546 2.523-2.319 5.29-2.319 8.3 0 2.198.407 4.192 1.22 5.982.896 1.71 2.36 3.296 4.395 4.761 2.035 1.383 4.802 2.685 8.301 3.906 3.58 1.221 8.057 2.401 13.428 3.54 10.091 2.116 18.758 4.842 26 8.179 7.325 3.255 12.94 7.487 16.847 12.695 3.906 5.127 5.859 11.638 5.859 19.531 0 5.86-1.261 11.231-3.784 16.114-2.442 4.801-6.022 8.992-10.742 12.573-4.72 3.499-10.376 6.226-16.968 8.179-6.51 1.953-13.835 2.929-21.973 2.929-11.963 0-22.095-2.115-30.395-6.347-8.301-4.313-14.608-9.807-18.921-16.48C3.027 160.86.91 153.861.91 146.618h28.442c.326 5.453 1.832 9.806 4.517 13.062 2.767 3.174 6.185 5.493 10.254 6.958a40.283 40.283 0 0012.817 2.075c5.29 0 9.725-.692 13.306-2.075 3.58-1.465 6.307-3.418 8.179-5.86 1.871-2.522 2.807-5.371 2.807-8.545zM205.096 55.92v21.484h-74.463V55.92h74.463zm-52.979-32.35h29.419V151.5c0 4.069.57 7.202 1.709 9.399 1.221 2.116 2.889 3.54 5.005 4.273 2.116.732 4.598 1.098 7.446 1.098 2.035 0 3.988-.122 5.86-.366 1.871-.244 3.377-.488 4.516-.732l.122 22.461c-2.441.732-5.289 1.383-8.545 1.953-3.173.57-6.836.854-10.986.854-6.754 0-12.736-1.18-17.944-3.54-5.209-2.441-9.278-6.388-12.207-11.84-2.93-5.453-4.395-12.696-4.395-21.729V23.572zm142.661 166.87c-9.765 0-18.595-1.587-26.489-4.76-7.812-3.256-14.486-7.772-20.019-13.55-5.453-5.778-9.644-12.573-12.574-20.386-2.929-7.812-4.394-16.235-4.394-25.268v-4.883c0-10.336 1.505-19.694 4.516-28.076 3.011-8.383 7.203-15.544 12.574-21.485 5.371-6.022 11.718-10.62 19.043-13.794 7.324-3.174 15.258-4.76 23.803-4.76 9.44 0 17.7 1.586 24.781 4.76 7.08 3.174 12.939 7.65 17.578 13.428 4.72 5.697 8.219 12.492 10.498 20.386 2.36 7.894 3.54 16.601 3.54 26.123v12.573H245.584V109.63h72.998v-2.319c-.163-5.29-1.221-10.254-3.174-14.893-1.872-4.639-4.761-8.382-8.667-11.23-3.906-2.849-9.114-4.273-15.625-4.273-4.883 0-9.236 1.058-13.061 3.174-3.744 2.034-6.877 5.005-9.4 8.911-2.523 3.906-4.476 8.626-5.859 14.16-1.302 5.453-1.953 11.597-1.953 18.433v4.883c0 5.778.773 11.149 2.319 16.113 1.628 4.883 3.988 9.155 7.08 12.817 3.093 3.662 6.836 6.551 11.231 8.667 4.394 2.035 9.399 3.052 15.014 3.052 7.08 0 13.387-1.424 18.921-4.272 5.534-2.849 10.335-6.877 14.404-12.085l15.503 15.014c-2.848 4.151-6.551 8.138-11.108 11.963-4.557 3.744-10.132 6.795-16.724 9.155-6.51 2.36-14.078 3.54-22.705 3.54zM408.997.5V188h-29.541V.5h29.541zm82.031 55.42l-57.495 63.721-31.494 32.226-7.69-24.902 23.803-29.42 37.354-41.625h35.522zM461.854 188l-42.847-62.012 18.555-20.63L495.911 188h-34.057zM549.949.5V188h-29.541V.5h29.541zm35.362 122.925v-2.808c0-9.521 1.383-18.351 4.15-26.49 2.767-8.218 6.754-15.34 11.963-21.361 5.29-6.104 11.719-10.824 19.287-14.16 7.65-3.419 16.276-5.128 25.879-5.128 9.684 0 18.31 1.71 25.879 5.127 7.649 3.337 14.119 8.057 19.409 14.16 5.29 6.023 9.318 13.144 12.085 21.363 2.767 8.138 4.15 16.968 4.15 26.489v2.808c0 9.521-1.383 18.351-4.15 26.489-2.767 8.138-6.795 15.259-12.085 21.362-5.29 6.023-11.719 10.743-19.287 14.161-7.569 3.336-16.154 5.004-25.757 5.004-9.684 0-18.351-1.668-26.001-5.004-7.568-3.418-13.997-8.138-19.287-14.161-5.29-6.103-9.318-13.224-12.085-21.362-2.767-8.138-4.15-16.968-4.15-26.489zm29.418-2.808v2.808c0 5.941.611 11.556 1.832 16.846 1.22 5.289 3.133 9.928 5.737 13.916 2.604 3.987 5.941 7.12 10.01 9.399 4.069 2.279 8.911 3.418 14.526 3.418 5.452 0 10.173-1.139 14.16-3.418 4.069-2.279 7.406-5.412 10.01-9.399 2.604-3.988 4.517-8.627 5.737-13.916 1.302-5.29 1.953-10.905 1.953-16.846v-2.808c0-5.859-.651-11.393-1.953-16.601-1.22-5.29-3.174-9.97-5.859-14.038-2.604-4.07-5.941-7.243-10.01-9.522-3.988-2.36-8.748-3.54-14.282-3.54-5.534 0-10.335 1.18-14.404 3.54-3.988 2.279-7.284 5.453-9.888 9.522s-4.517 8.748-5.737 14.038c-1.221 5.208-1.832 10.742-1.832 16.601zm156.333-39.306v157.47h-29.418V55.92h27.099l2.319 25.39zm86.06 39.428v2.564c0 9.603-1.139 18.514-3.418 26.733-2.197 8.138-5.493 15.259-9.888 21.362-4.313 6.023-9.643 10.702-15.991 14.039-6.347 3.336-13.672 5.004-21.972 5.004-8.22 0-15.422-1.505-21.607-4.516-6.103-3.093-11.271-7.446-15.503-13.062-4.232-5.615-7.65-12.207-10.254-19.775-2.523-7.65-4.313-16.032-5.371-25.147v-9.887c1.058-9.685 2.848-18.474 5.371-26.368 2.604-7.893 6.022-14.689 10.254-20.385 4.232-5.697 9.4-10.091 15.503-13.184 6.104-3.092 13.224-4.639 21.362-4.639 8.301 0 15.666 1.628 22.095 4.883 6.429 3.174 11.841 7.731 16.235 13.672 4.395 5.86 7.691 12.94 9.888 21.24 2.197 8.22 3.296 17.375 3.296 27.466zm-29.419 2.564v-2.564c0-6.103-.57-11.759-1.709-16.968-1.139-5.29-2.93-9.928-5.371-13.915-2.441-3.988-5.574-7.08-9.399-9.278-3.744-2.279-8.26-3.418-13.55-3.418-5.209 0-9.684.895-13.428 2.686-3.743 1.709-6.877 4.11-9.399 7.202-2.523 3.092-4.476 6.714-5.86 10.864-1.383 4.069-2.36 8.504-2.929 13.306v23.681c.976 5.86 2.644 11.231 5.004 16.114 2.361 4.883 5.697 8.789 10.01 11.718 4.395 2.849 10.01 4.273 16.846 4.273 5.29 0 9.806-1.139 13.55-3.418 3.743-2.279 6.795-5.412 9.155-9.399 2.441-4.069 4.232-8.749 5.371-14.039 1.139-5.289 1.709-10.905 1.709-16.845zm137.656 38.208V98.522c0-4.72-.854-8.789-2.563-12.207-1.709-3.418-4.313-6.062-7.813-7.934-3.418-1.872-7.731-2.808-12.939-2.808-4.801 0-8.952.814-12.451 2.442-3.5 1.627-6.226 3.825-8.179 6.591-1.953 2.767-2.93 5.9-2.93 9.4h-29.296c0-5.209 1.261-10.254 3.784-15.137 2.522-4.883 6.185-9.237 10.986-13.061 4.801-3.825 10.539-6.836 17.212-9.034 6.673-2.197 14.16-3.296 22.461-3.296 9.928 0 18.717 1.669 26.367 5.005 7.731 3.337 13.794 8.383 18.189 15.137 4.475 6.673 6.713 15.055 6.713 25.147v58.715c0 6.023.407 11.434 1.221 16.236.895 4.72 2.157 8.83 3.784 12.329V188h-30.151c-1.384-3.174-2.482-7.202-3.296-12.085-.732-4.964-1.099-9.766-1.099-14.404zm4.273-53.833l.244 18.188h-21.118c-5.453 0-10.254.529-14.404 1.587-4.151.977-7.61 2.442-10.376 4.395-2.767 1.953-4.843 4.313-6.226 7.08-1.384 2.767-2.075 5.9-2.075 9.399 0 3.499.814 6.714 2.441 9.644 1.628 2.848 3.988 5.086 7.08 6.714 3.174 1.627 6.999 2.441 11.475 2.441 6.022 0 11.271-1.221 15.747-3.662 4.557-2.523 8.138-5.575 10.742-9.155 2.604-3.663 3.988-7.121 4.15-10.376l9.522 13.061c-.977 3.337-2.645 6.917-5.005 10.742-2.36 3.825-5.452 7.487-9.277 10.987-3.744 3.418-8.26 6.225-13.55 8.423-5.208 2.197-11.231 3.295-18.066 3.295-8.627 0-16.317-1.709-23.072-5.127-6.754-3.499-12.044-8.178-15.869-14.038-3.825-5.94-5.737-12.654-5.737-20.141 0-6.999 1.302-13.184 3.906-18.555 2.686-5.452 6.592-10.01 11.719-13.672 5.208-3.662 11.556-6.429 19.043-8.301 7.487-1.953 16.032-2.929 25.635-2.929h23.071zM1064.08.5V188h-29.55V.5h29.55zm82.03 55.42l-57.5 63.721-31.49 32.226-7.69-24.902 23.8-29.42 37.35-41.625h35.53zM1116.93 188l-42.85-62.012 18.56-20.63L1150.99 188h-34.06z" fill="#000" fill-opacity=".02"/></svg>