<svg width="111" height="104" fill="none" xmlns="http://www.w3.org/2000/svg"><path d="M27.926 78.77v-4.8l15.072-12.895c2.71-2.304 4.618-4.95 5.728-7.936a26.44 26.44 0 001.664-9.216c0-2.326-.406-4.459-1.216-6.4-.79-1.963-1.899-3.542-3.328-4.736-1.408-1.216-3.03-1.824-4.864-1.824-2.496 0-4.715.565-6.656 1.696-1.942 1.11-3.414 2.699-4.416 4.768-.982 2.07-1.29 4.554-.928 7.456h-.16c0-.683.213-1.323.64-1.92a5.051 5.051 0 011.696-1.44 4.824 4.824 0 012.24-.544c.746 0 1.45.17 2.112.512a4.414 4.414 0 011.632 1.44c.448.619.672 1.344.672 2.176 0 .938-.203 1.75-.608 2.432a4.285 4.285 0 01-1.664 1.6 4.775 4.775 0 01-2.272.544c-.832 0-1.579-.203-2.24-.608-.64-.406-1.163-.97-1.568-1.696-.384-.725-.619-1.557-.704-2.496-.363-3.05.01-5.675 1.12-7.872 1.13-2.219 2.858-3.915 5.184-5.088 2.346-1.195 5.13-1.792 8.352-1.792 3.072 0 5.685.565 7.84 1.696 2.176 1.13 3.818 2.624 4.928 4.48a11.25 11.25 0 011.696 6.016c0 1.664-.288 3.19-.864 4.576a15.233 15.233 0 01-2.208 3.776 25.605 25.605 0 01-2.944 3.136 129.48 129.48 0 01-3.072 2.624L30.902 71.923h28.096v-4.8h.192V78.77H27.926zm43.646-10.953c-1.912 0-3.65-.462-5.218-1.386-1.55-.94-2.882-2.24-3.995-3.901-1.112-1.66-1.974-3.58-2.584-5.758-.596-2.193-.893-4.543-.893-7.05 0-2.506.32-4.848.963-7.026.642-2.193 1.535-4.12 2.679-5.781 1.16-1.66 2.507-2.953 4.042-3.877a9.41 9.41 0 015.005-1.41c1.802 0 3.47.47 5.006 1.41 1.535.924 2.875 2.216 4.019 3.877 1.159 1.66 2.06 3.588 2.702 5.781.642 2.178.963 4.52.963 7.026 0 2.507-.305 4.857-.916 7.05-.595 2.178-1.45 4.097-2.561 5.758-1.113 1.66-2.452 2.961-4.019 3.901-1.551.924-3.282 1.386-5.194 1.386zm0-.164c1.582 0 2.85-.525 3.806-1.575.956-1.05 1.685-2.444 2.186-4.183.517-1.739.862-3.666 1.034-5.78.172-2.131.258-4.262.258-6.393 0-2.146-.11-4.276-.328-6.392-.22-2.114-.596-4.041-1.129-5.78-.532-1.74-1.276-3.134-2.232-4.183-.94-1.05-2.139-1.575-3.596-1.575-1.456 0-2.663.525-3.618 1.575-.94 1.05-1.677 2.444-2.21 4.183-.532 1.739-.908 3.666-1.127 5.78a61.908 61.908 0 00-.33 6.392c0 2.131.087 4.262.259 6.392.172 2.116.51 4.043 1.01 5.782.517 1.739 1.254 3.133 2.21 4.183.97 1.05 2.24 1.574 3.806 1.574zM67.395 77H66.06v-6.945h-2.37a38.64 38.64 0 01-.375 3.255c-.15.89-.34 1.615-.57 2.175-.23.56-.505.97-.825 1.23-.32.26-.695.39-1.125.39-.13 0-.26-.01-.39-.03a.824.824 0 01-.3-.075v-.99c.06.02.125.035.195.045.07.01.14.015.21.015.22 0 .42-.09.6-.27.18-.18.34-.455.48-.825.15-.37.285-.835.405-1.395.12-.57.225-1.24.315-2.01.09-.77.17-1.64.24-2.61h4.845V77zm5.657-8.19c.69 0 1.28.15 1.77.45.5.3.88.725 1.14 1.275.27.54.405 1.175.405 1.905v.795h-5.505c.02.91.25 1.605.69 2.085.45.47 1.075.705 1.875.705.51 0 .96-.045 1.35-.135.4-.1.81-.24 1.23-.42v1.155c-.41.18-.815.31-1.215.39-.4.09-.875.135-1.425.135-.76 0-1.435-.155-2.025-.465a3.303 3.303 0 01-1.365-1.38c-.32-.62-.48-1.375-.48-2.265 0-.88.145-1.635.435-2.265.3-.63.715-1.115 1.245-1.455.54-.34 1.165-.51 1.875-.51zm-.015 1.08c-.63 0-1.13.205-1.5.615-.36.4-.575.96-.645 1.68h4.095c0-.46-.07-.86-.21-1.2a1.695 1.695 0 00-.645-.795c-.28-.2-.645-.3-1.095-.3zm10.927.18h-2.625V77h-1.305v-6.93h-2.595v-1.11h6.525v1.11z" fill="#D9D9D9" fill-opacity=".45"/><path d="M39.098 87.039s3.766 1.296 5.013 4.306a12.654 12.654 0 01.886 6.944s-3.766-1.967-5.037-4.005c-1.755-2.9-.862-7.245-.862-7.245zm-6.584 16.513s3.804 1.173 6.577-.525a12.659 12.659 0 004.774-5.062s-4.204-.633-6.422.27c-3.12 1.304-4.929 5.317-4.929 5.317zm.739-19.754s3.42 1.89 4.113 5.008c.528 2.26.416 4.622-.324 6.821 0 0-3.303-2.538-4.174-4.722-1.232-3.071.385-7.107.385-7.107zm-9.179 14.815s3.473 1.775 6.445.61a12.407 12.407 0 005.468-4.074s-3.95-1.328-6.245-.834c-3.227.695-5.668 4.298-5.668 4.298zm3.92-19.02s2.972 2.407 3.08 5.532c.13 2.27-.377 4.532-1.463 6.528 0 0-2.765-3.017-3.235-5.27-.631-3.171 1.618-6.79 1.618-6.79zM16.611 92.325s3.08 2.314 6.115 1.69a12.127 12.127 0 005.968-2.964s-3.588-1.952-5.883-1.867c-3.227.077-6.2 3.14-6.2 3.14zm6.916-17.84s2.457 2.84 2.064 5.88a11.98 11.98 0 01-2.518 6.057s-2.156-3.38-2.226-5.64c-.1-3.18 2.68-6.297 2.68-6.297zM10.38 84.878s2.558 2.747 5.623 2.67a11.873 11.873 0 006.26-1.898s-3.126-2.5-5.39-2.809c-3.104-.455-6.492 2.037-6.492 2.037zm9.605-16.204s1.894 3.149.993 6.019a11.738 11.738 0 01-3.466 5.401s-1.517-3.588-1.185-5.787c.438-3.07 3.657-5.633 3.657-5.633zM5.537 76.452s2.002 3.087 4.967 3.534a11.66 11.66 0 006.369-.771s-2.595-2.917-4.729-3.596c-2.918-.957-6.607.833-6.607.833zm11.999-14.036s1.294 3.365-.062 5.98a11.442 11.442 0 01-4.258 4.63s-.832-3.757-.162-5.818c.947-2.893 4.482-4.791 4.482-4.791zM2.288 67.432s1.386 3.318 4.181 4.26a11.46 11.46 0 006.276.37s-2.002-3.287-3.912-4.306c-2.695-1.397-6.545-.324-6.545-.324zm13.9-11.605s.678 3.464-1.07 5.756a11.16 11.16 0 01-4.898 3.743s-.17-3.766.832-5.641c1.409-2.631 5.136-3.858 5.136-3.858zM.594 58.065s.77 3.441 3.319 4.83a11.225 11.225 0 005.991 1.42s-1.378-3.511-3.08-4.815c-2.295-1.837-6.23-1.435-6.23-1.435zm15.401-9.005s.062 3.464-2.017 5.401a10.982 10.982 0 01-5.391 2.778s.477-3.665 1.763-5.309c1.841-2.322 5.645-2.87 5.645-2.87zM.594 48.566S.77 52.023 2.98 53.79a10.956 10.956 0 005.537 2.4s-.732-3.627-2.125-5.17c-1.949-2.176-5.8-2.454-5.8-2.454zm16.372-6.412s-.524 3.372-2.857 4.838a10.766 10.766 0 01-5.645 1.767s1.086-3.457 2.603-4.776c2.133-1.953 5.899-1.83 5.899-1.83zM2.18 39.044s-.416 3.395 1.41 5.448a10.78 10.78 0 004.943 3.264s-.092-3.627-1.17-5.355C5.838 39.97 2.18 39.044 2.18 39.044zm16.95-3.634s-1.078 3.148-3.58 4.19a10.517 10.517 0 01-5.746.771s1.633-3.148 3.335-4.205c2.372-1.512 5.991-.756 5.991-.756zM5.383 29.893s-.94 3.179.447 5.501a10.612 10.612 0 004.213 3.959s.523-3.519-.224-5.402c-1.055-2.538-4.436-4.058-4.436-4.058zm17.081-.733s-1.54 2.855-4.166 3.433c-1.88.445-3.847.351-5.676-.27 0 0 2.118-2.754 3.935-3.488 2.519-1.057 5.907.325 5.907.325zm-12.321-7.67s-1.479 2.901-.516 5.401a10.43 10.43 0 003.396 4.568s1.101-3.302.693-5.224c-.577-2.7-3.573-4.745-3.573-4.745zm16.727 2.106s-2.003 2.485-4.621 2.6a10.098 10.098 0 01-5.391-1.226s2.51-2.315 4.382-2.693c2.618-.556 5.63 1.32 5.63 1.32zM16.273 14.09s-1.918 2.546-1.402 5.108a10.138 10.138 0 002.495 4.985s1.625-2.994 1.54-4.916c-.084-2.693-2.633-5.177-2.633-5.177zm15.894 4.838s-2.356 2.06-4.89 1.728a10 10 0 01-5.075-2.137s2.819-1.798 4.698-1.86c2.633-.054 5.267 2.269 5.267 2.269zM23.52 7.948s-2.31 2.137-2.226 4.691a10.05 10.05 0 001.54 5.24s2.087-2.616 2.31-4.484c.408-2.592-1.625-5.447-1.625-5.447zm14.562 7.33s-2.626 1.582-5.006.826a9.709 9.709 0 01-4.505-2.886s3.02-1.258 4.844-.995c2.603.37 4.667 3.055 4.667 3.055zM31.636 3.21s-2.549 1.674-2.941 4.151a9.747 9.747 0 00.616 5.317s2.456-2.169 3.019-3.92c.793-2.47-.694-5.548-.694-5.548zm12.853 9.537s-2.803 1.073-4.975-.054a9.572 9.572 0 01-3.85-3.565s3.126-.686 4.843-.13c2.388.794 3.982 3.75 3.982 3.75zM40.308 0s-2.75 1.173-3.52 3.503a9.58 9.58 0 00-.308 5.24s2.734-1.675 3.581-3.272C41.216 3.225 40.308 0 40.308 0zm.115 7.176s2.071 1.173 3.904.54a7.546 7.546 0 003.435-2.315s-2.372-.91-3.781-.671c-1.972.316-3.558 2.446-3.558 2.446zm31.643 79.863s-3.766 1.296-5.013 4.306a12.747 12.747 0 00-.886 6.944s3.774-1.967 5.037-4.005c1.779-2.9.862-7.245.862-7.245zm6.608 16.513s-3.805 1.173-6.585-.525a12.678 12.678 0 01-4.767-5.031s4.205-.633 6.423.27c3.088 1.273 4.928 5.286 4.928 5.286zm-.747-19.754s-3.412 1.89-4.105 5.008a12.44 12.44 0 00.316 6.821s3.312-2.538 4.182-4.722c1.224-3.071-.393-7.107-.393-7.107zm9.187 14.815s-3.481 1.775-6.446.61a12.323 12.323 0 01-5.468-4.074s3.95-1.328 6.246-.834c3.219.695 5.668 4.298 5.668 4.298zm-3.92-19.02S80.22 82 80.114 85.125c-.13 2.27.377 4.532 1.463 6.528 0 0 2.757-3.017 3.226-5.27.64-3.171-1.61-6.79-1.61-6.79zm11.351 12.732s-3.08 2.314-6.114 1.69a12.081 12.081 0 01-5.96-3.002s3.58-1.952 5.883-1.868c3.25.116 6.191 3.18 6.191 3.18zm-6.885-17.84s-2.464 2.84-2.063 5.88a11.98 11.98 0 002.518 6.049s2.148-3.38 2.226-5.64c.1-3.172-2.68-6.29-2.68-6.29zm13.139 10.393s-2.55 2.747-5.614 2.67a11.92 11.92 0 01-6.269-1.875s3.134-2.5 5.39-2.808c3.112-.479 6.493 2.013 6.493 2.013zm-9.596-16.204s-1.895 3.149-.994 6.019a11.692 11.692 0 003.458 5.401s1.54-3.626 1.186-5.825c-.431-3.033-3.65-5.595-3.65-5.595zm14.439 7.778s-1.994 3.087-4.959 3.534c-2.154.345-4.36.078-6.369-.771 0 0 2.595-2.948 4.698-3.627 2.949-.926 6.63.864 6.63.864zM93.644 62.416s-1.286 3.365.07 5.98a11.396 11.396 0 004.25 4.63s.84-3.757.162-5.818c-.947-2.893-4.482-4.791-4.482-4.791zm15.255 5.016s-1.401 3.318-4.189 4.26a11.43 11.43 0 01-6.269.37s2.003-3.287 3.912-4.306c2.688-1.397 6.546-.324 6.546-.324zM94.991 55.827s-.67 3.464 1.079 5.756a11.162 11.162 0 004.897 3.743s.162-3.766-.839-5.641c-1.402-2.631-5.137-3.858-5.137-3.858zm15.58 2.238s-.77 3.441-3.327 4.83a11.223 11.223 0 01-5.991 1.42s1.378-3.511 3.08-4.815c2.326-1.837 6.238-1.435 6.238-1.435zM95.185 49.06s-.062 3.464 2.017 5.401a10.982 10.982 0 005.391 2.778s-.477-3.665-1.763-5.309c-1.841-2.322-5.645-2.87-5.645-2.87zm15.409-.494s-.177 3.457-2.388 5.224a10.978 10.978 0 01-5.537 2.4s.732-3.627 2.126-5.17c1.956-2.176 5.799-2.454 5.799-2.454zm-16.38-6.412s.531 3.349 2.865 4.838a10.765 10.765 0 005.644 1.767s-1.085-3.457-2.61-4.815c-2.126-1.914-5.9-1.79-5.9-1.79zm14.793-3.11s.416 3.372-1.417 5.448a10.78 10.78 0 01-4.936 3.264s.085-3.627 1.17-5.355c1.502-2.431 5.183-3.357 5.183-3.357zM92.05 35.41s1.078 3.148 3.588 4.19a10.516 10.516 0 005.745.771s-1.632-3.148-3.334-4.205c-2.38-1.512-6-.756-6-.756zm13.746-5.517s.971 3.179-.439 5.501a10.604 10.604 0 01-4.212 3.959s-.531-3.519.223-5.402c1.055-2.538 4.428-4.058 4.428-4.058zm-17.08-.733s1.54 2.855 4.174 3.433a10.27 10.27 0 005.668-.27s-2.11-2.754-3.928-3.488c-2.549-1.057-5.914.325-5.914.325zm12.328-7.67s1.479 2.901.509 5.401a10.385 10.385 0 01-3.389 4.568s-1.109-3.302-.693-5.224c.578-2.7 3.573-4.745 3.573-4.745zM84.31 23.596s2.01 2.485 4.621 2.6a10.093 10.093 0 005.39-1.226s-2.51-2.315-4.389-2.693c-2.603-.556-5.621 1.32-5.621 1.32zm10.597-9.506s1.925 2.546 1.409 5.108a10.216 10.216 0 01-2.495 4.985s-1.633-2.994-1.54-4.916c.077-2.693 2.626-5.177 2.626-5.177zM79.05 18.928s2.365 2.06 4.899 1.728a10 10 0 005.028-2.137s-2.81-1.798-4.69-1.86c-2.641-.054-5.236 2.269-5.236 2.269zm8.618-10.98s2.31 2.137 2.226 4.691a9.969 9.969 0 01-1.54 5.24s-2.08-2.616-2.31-4.484c-.417-2.592 1.624-5.447 1.624-5.447zm-14.569 7.33s2.626 1.582 5.013.826a9.709 9.709 0 004.505-2.886s-3.026-1.258-4.852-.995c-2.556.37-4.666 3.055-4.666 3.055zM79.544 3.21s2.572 1.674 2.95 4.151a9.702 9.702 0 01-.624 5.317s-2.45-2.169-3.012-3.92c-.793-2.47.686-5.548.686-5.548zm-12.838 9.537s2.803 1.073 4.983-.054a9.572 9.572 0 003.85-3.565s-3.127-.686-4.844-.13c-2.41.794-3.989 3.75-3.989 3.75zM70.88 0s2.765 1.173 3.55 3.503a9.664 9.664 0 01.308 5.24s-2.741-1.675-3.58-3.272C69.97 3.225 70.88 0 70.88 0zm-.123 7.176s-2.072 1.173-3.936.54a7.493 7.493 0 01-3.426-2.315s2.371-.91 3.773-.671c2.01.316 3.589 2.446 3.589 2.446z" fill="#D9D9D9" fill-opacity=".35"/></svg>