<svg width="28" height="28" fill="none" xmlns="http://www.w3.org/2000/svg"><path fill-rule="evenodd" clip-rule="evenodd" d="M27.293 12.338l-1.908-1.908c-.453-.453-.824-1.347-.824-1.989V5.743a2.338 2.338 0 00-2.331-2.332h-2.7c-.64 0-1.537-.371-1.99-.824L15.634.68a2.338 2.338 0 00-3.296 0L10.43 2.589c-.453.452-1.35.823-1.99.823H5.744a2.338 2.338 0 00-2.331 2.332V8.44c0 .64-.371 1.537-.824 1.99L.68 12.337a2.339 2.339 0 000 3.298l1.908 1.907c.453.453.824 1.35.824 1.99v2.697a2.339 2.339 0 002.331 2.331h2.698c.64 0 1.536.372 1.99.824l1.907 1.908a2.34 2.34 0 003.296 0l1.908-1.908c.453-.453 1.348-.824 1.99-.824h2.698a2.338 2.338 0 002.331-2.331v-2.698c0-.642.371-1.536.824-1.989l1.908-1.907a2.341 2.341 0 000-3.298zM12.136 19.23l-5.144-5.144 1.649-1.648 3.495 3.496L19.33 8.74l1.648 1.648-8.843 8.842z" fill="url(#paint0_linear_245_829)"/><defs><linearGradient id="paint0_linear_245_829" x1="13.986" y1="27.972" x2="13.986" y2="0" gradientUnits="userSpaceOnUse"><stop stop-color="#FFBD47"/><stop offset="1" stop-color="#FEE591"/></linearGradient></defs></svg>